<svg width="18" height="20" viewBox="0 0 18 20" fill="none" xmlns="http://www.w3.org/2000/svg">
<mask id="mask0_1_1891" style="mask-type:alpha" maskUnits="userSpaceOnUse" x="-3" y="-3" width="24" height="25">
<rect x="-2.99999" y="-2.0404" width="23.9999" height="23.9999" fill="white"/>
</mask>
<g mask="url(#mask0_1_1891)">
<path d="M15.9999 4.83256C16.3062 5.00936 16.5601 5.26419 16.7358 5.57108C16.9114 5.87797 17.0026 6.22595 16.9999 6.57955V13.1155C16.9999 13.4722 16.9044 13.8223 16.7235 14.1297C16.5426 14.437 16.2827 14.6904 15.9709 14.8635L9.97097 18.6965C9.67392 18.8615 9.33975 18.948 8.99997 18.948C8.66019 18.948 8.32602 18.8615 8.02897 18.6965L2.02899 14.8635C1.71735 14.6905 1.45763 14.4372 1.27671 14.1301C1.09579 13.8229 1.00026 13.473 0.999997 13.1165V6.57955C1.00008 6.22291 1.09553 5.87278 1.27646 5.56543C1.45738 5.25809 1.7172 5.00471 2.02899 4.83156L8.02897 1.25957C8.33478 1.08934 8.67898 0.999997 9.02897 0.999997C9.37896 0.999997 9.72316 1.08934 10.029 1.25957L16.0289 4.83256H15.9999V4.83256Z" stroke="black" stroke-width="2" stroke-linecap="round" stroke-linejoin="round"/>
<path d="M8.99997 12.9596C10.6568 12.9596 12 11.6164 12 9.95956C12 8.30271 10.6568 6.95957 8.99997 6.95957C7.34312 6.95957 5.99998 8.30271 5.99998 9.95956C5.99998 11.6164 7.34312 12.9596 8.99997 12.9596Z" stroke="black" stroke-width="2" stroke-linecap="round" stroke-linejoin="round"/>
</g>
</svg>
