<svg width="42" height="27" viewBox="0 0 42 27" fill="none" xmlns="http://www.w3.org/2000/svg">
<path fill-rule="evenodd" clip-rule="evenodd" d="M37.9642 20.8937C33.3657 24.2655 26.6996 26.0583 20.9587 26.0583C12.9131 26.0583 5.66805 23.1032 0.185965 18.185C-0.244388 17.7987 0.138997 17.2712 0.656732 17.5708C6.57136 20.9903 13.8863 23.05 21.4415 23.05C26.538 23.05 32.1402 21.9996 37.2957 19.8269C38.0723 19.4981 38.7244 20.3348 37.9642 20.8937ZM39.8767 18.7233C40.4655 19.4721 39.2225 22.5552 38.6676 23.9323C38.4994 24.3491 38.8599 24.5173 39.24 24.2015C41.7063 22.1515 42.3442 17.8551 41.8396 17.2344C41.3382 16.619 37.0259 16.0894 34.3936 17.9256C33.9883 18.2078 34.0582 18.5985 34.5072 18.5442C35.9894 18.3684 39.2891 17.9745 39.8767 18.7233Z" fill="#FF9900"/>
<path fill-rule="evenodd" clip-rule="evenodd" d="M33.2195 13.2027L38.0058 1.09927C38.1063 0.85401 38.1576 0.68146 38.1576 0.580535C38.1576 0.407985 38.056 0.321167 37.8529 0.321167H36.635C36.4023 0.321167 36.2439 0.358064 36.1555 0.429689C36.0681 0.502399 35.9818 0.660841 35.8944 0.9061L32.9573 9.29159L29.9121 0.9061C29.8247 0.660841 29.7384 0.502399 29.651 0.429689C29.5636 0.358064 29.4042 0.321167 29.1715 0.321167H27.8663C27.6631 0.321167 27.5615 0.407985 27.5615 0.580535C27.5615 0.68146 27.6118 0.85401 27.7133 1.09927L31.912 11.3872L31.4991 12.4897C31.2523 13.1821 30.977 13.6574 30.6723 13.9168C30.3676 14.1762 29.9394 14.3053 29.3889 14.3053C29.142 14.3053 28.9465 14.2901 28.8023 14.2619C28.6571 14.2337 28.5478 14.2185 28.4758 14.2185C28.2584 14.2185 28.1492 14.3552 28.1492 14.6287V15.1908C28.1492 15.3927 28.1852 15.5403 28.2584 15.6336C28.3305 15.7269 28.4463 15.7964 28.6068 15.8387C28.9684 15.9386 29.3823 15.9907 29.8465 15.9907C30.6734 15.9907 31.344 15.7747 31.8585 15.3417C32.3751 14.9109 32.8284 14.1968 33.2195 13.2027Z" fill="#A0A0A0"/>
<path fill-rule="evenodd" clip-rule="evenodd" d="M15.3522 3.29581C15.1413 2.59693 14.841 2.00223 14.4489 1.5128C14.0578 1.02336 13.5794 0.647876 13.0136 0.388509C12.4489 0.129141 11.8176 0 11.1207 0C10.4686 0 9.82966 0.121545 9.20707 0.366804C8.58338 0.612064 7.99574 0.972357 7.44415 1.44768L7.33601 0.755313C7.29232 0.46773 7.12521 0.323396 6.83466 0.323396H5.87784C5.58839 0.323396 5.44312 0.46773 5.44312 0.755313V15.3016C5.44312 15.5903 5.58839 15.7335 5.87784 15.7335H7.16125C7.45179 15.7335 7.59597 15.5892 7.59597 15.3016V10.2445C8.5386 11.0942 9.66254 11.5196 10.9678 11.5196C11.6778 11.5196 12.3233 11.3785 12.9033 11.0985C13.4833 10.8175 13.9759 10.4246 14.3822 9.92C14.7885 9.41645 15.1042 8.80439 15.3281 8.08272C15.5531 7.36213 15.6657 6.55473 15.6657 5.66159C15.6678 4.78365 15.5619 3.99469 15.3522 3.29581ZM10.4686 9.78977C9.48123 9.78977 8.5244 9.44467 7.59706 8.7523V2.72282C8.5102 2.05975 9.48232 1.72876 10.5123 1.72876C12.485 1.72876 13.4713 3.0766 13.4713 5.77011C13.4702 8.45061 12.4697 9.78977 10.4686 9.78977Z" fill="#A0A0A0"/>
<path fill-rule="evenodd" clip-rule="evenodd" d="M25.1617 0.8486C24.5085 0.287542 23.4938 0.00646973 22.1165 0.00646973C21.4349 0.00646973 20.7533 0.0683272 20.0718 0.189872C19.3891 0.312502 18.8167 0.474199 18.3525 0.67605C18.1789 0.74876 18.062 0.82364 18.0041 0.902861C17.9462 0.982082 17.9167 1.12316 17.9167 1.32393V1.90669C17.9167 2.16606 18.0106 2.29628 18.1996 2.29628C18.2575 2.29628 18.3198 2.28543 18.3853 2.26373C18.4508 2.24202 18.5054 2.22466 18.548 2.20947C19.6654 1.87847 20.7304 1.71243 21.7462 1.71243C22.6156 1.71243 23.2251 1.87088 23.5736 2.18885C23.922 2.50573 24.0957 3.05268 24.0957 3.83078V5.25676C23.0809 5.0115 22.1667 4.88996 21.3541 4.88996C20.0783 4.88996 19.0636 5.20359 18.3088 5.82976C17.5552 6.45593 17.1772 7.29589 17.1772 8.34747C17.1772 9.32851 17.482 10.1088 18.0915 10.6926C18.6999 11.2765 19.5267 11.5673 20.5709 11.5673C21.1946 11.5673 21.8216 11.4447 22.4529 11.2005C23.0842 10.9563 23.6598 10.6091 24.1819 10.163L24.2912 10.876C24.3349 11.1495 24.4943 11.2862 24.7707 11.2862H25.7057C25.9951 11.2862 26.1415 11.1419 26.1415 10.8543V3.46398C26.1404 2.28218 25.8138 1.41074 25.1617 0.8486ZM24.0957 8.84667C23.6172 9.20696 23.117 9.48044 22.5949 9.66818C22.0728 9.85592 21.5725 9.94925 21.0941 9.94925C20.5283 9.94925 20.0936 9.80166 19.7889 9.50648C19.4841 9.2113 19.3323 8.79024 19.3323 8.2422C19.3323 6.98877 20.1515 6.36152 21.7899 6.36152C22.1667 6.36152 22.5545 6.38756 22.9531 6.43748C23.3518 6.48849 23.733 6.55686 24.0957 6.64259V8.84667Z" fill="#A0A0A0"/>
</svg>
