<svg width="34" height="25" viewBox="0 0 34 25" fill="none" xmlns="http://www.w3.org/2000/svg">
<g opacity="0.3">
<path d="M0 24.8718V16.6667H0.981597V20.3205H5.30379V16.6667H6.28539V24.8718H5.30379V21.2019H0.981597V24.8718H0Z" fill="#A0A0A0"/>
<path d="M10.5937 25C10.0449 25 9.56332 24.8678 9.14904 24.6034C8.7374 24.3389 8.41548 23.969 8.18328 23.4936C7.95371 23.0182 7.83892 22.4626 7.83892 21.8269C7.83892 21.1859 7.95371 20.6263 8.18328 20.1482C8.41548 19.6701 8.7374 19.2989 9.14904 19.0345C9.56332 18.77 10.0449 18.6378 10.5937 18.6378C11.1426 18.6378 11.6228 18.77 12.0345 19.0345C12.4487 19.2989 12.7707 19.6701 13.0002 20.1482C13.2324 20.6263 13.3485 21.1859 13.3485 21.8269C13.3485 22.4626 13.2324 23.0182 13.0002 23.4936C12.7707 23.969 12.4487 24.3389 12.0345 24.6034C11.6228 24.8678 11.1426 25 10.5937 25ZM10.5937 24.1506C11.0106 24.1506 11.3537 24.0425 11.6228 23.8261C11.892 23.6098 12.0912 23.3253 12.2205 22.9728C12.3498 22.6202 12.4144 22.2382 12.4144 21.8269C12.4144 21.4156 12.3498 21.0323 12.2205 20.6771C12.0912 20.3218 11.892 20.0347 11.6228 19.8157C11.3537 19.5967 11.0106 19.4872 10.5937 19.4872C10.1768 19.4872 9.83379 19.5967 9.56464 19.8157C9.29549 20.0347 9.09626 20.3218 8.96697 20.6771C8.83767 21.0323 8.77303 21.4156 8.77303 21.8269C8.77303 22.2382 8.83767 22.6202 8.96697 22.9728C9.09626 23.3253 9.29549 23.6098 9.56464 23.8261C9.83379 24.0425 10.1768 24.1506 10.5937 24.1506Z" fill="#A0A0A0"/>
<path d="M15.7085 16.6667V24.8718H14.7744V16.6667H15.7085Z" fill="#A0A0A0"/>
<path d="M19.7151 25C19.2084 25 18.7612 24.8705 18.3733 24.6114C17.9854 24.3496 17.6819 23.981 17.4629 23.5056C17.2439 23.0275 17.1344 22.4626 17.1344 21.8109C17.1344 21.1645 17.2439 20.6036 17.4629 20.1282C17.6819 19.6528 17.9867 19.2855 18.3772 19.0264C18.7678 18.7674 19.219 18.6378 19.7309 18.6378C20.1267 18.6378 20.4394 18.7046 20.669 18.8381C20.9012 18.969 21.078 19.1186 21.1993 19.2869C21.3234 19.4525 21.4197 19.5887 21.4883 19.6955H21.5674V16.6667H22.5015V24.8718H21.5991V23.9263H21.4883C21.4197 24.0385 21.322 24.18 21.1954 24.351C21.0687 24.5192 20.888 24.6701 20.6531 24.8037C20.4183 24.9346 20.1056 25 19.7151 25ZM19.8417 24.1506C20.2164 24.1506 20.5331 24.0518 20.7917 23.8542C21.0502 23.6538 21.2468 23.3774 21.3814 23.0248C21.516 22.6696 21.5833 22.2596 21.5833 21.7949C21.5833 21.3355 21.5173 20.9335 21.3854 20.5889C21.2534 20.2417 21.0582 19.972 20.7996 19.7796C20.541 19.5847 20.2217 19.4872 19.8417 19.4872C19.4459 19.4872 19.1161 19.59 18.8522 19.7957C18.591 19.9987 18.3944 20.2751 18.2625 20.625C18.1332 20.9722 18.0685 21.3622 18.0685 21.7949C18.0685 22.2329 18.1345 22.6309 18.2664 22.9888C18.401 23.344 18.5989 23.6271 18.8601 23.8381C19.124 24.0465 19.4512 24.1506 19.8417 24.1506Z" fill="#A0A0A0"/>
<path d="M26.891 25C26.3052 25 25.7999 24.8691 25.3751 24.6074C24.9529 24.3429 24.627 23.9744 24.3974 23.5016C24.1705 23.0262 24.057 22.4733 24.057 21.8429C24.057 21.2126 24.1705 20.6571 24.3974 20.1763C24.627 19.6928 24.9463 19.3162 25.3553 19.0465C25.7669 18.774 26.2472 18.6378 26.796 18.6378C27.1127 18.6378 27.4254 18.6912 27.7341 18.7981C28.0428 18.9049 28.3238 19.0785 28.5771 19.3189C28.8305 19.5566 29.0323 19.8718 29.1827 20.2644C29.3331 20.6571 29.4083 21.1405 29.4083 21.7147V22.1154H24.722V21.2981H28.4584C28.4584 20.9509 28.3898 20.641 28.2526 20.3686C28.118 20.0962 27.9254 19.8811 27.6747 19.7236C27.4267 19.566 27.1338 19.4872 26.796 19.4872C26.424 19.4872 26.102 19.5807 25.8303 19.7676C25.5611 19.9519 25.354 20.1923 25.2088 20.4888C25.0637 20.7853 24.9912 21.1031 24.9912 21.4423V21.9872C24.9912 22.4519 25.0703 22.8459 25.2286 23.1691C25.3896 23.4896 25.6126 23.734 25.8975 23.9022C26.1825 24.0678 26.5137 24.1506 26.891 24.1506C27.1364 24.1506 27.3581 24.1159 27.556 24.0465C27.7565 23.9744 27.9293 23.8675 28.0745 23.726C28.2196 23.5817 28.3317 23.4028 28.4109 23.1891L29.3133 23.4455C29.2184 23.7553 29.0587 24.0278 28.8344 24.2628C28.6101 24.4952 28.3331 24.6768 28.0032 24.8077C27.6734 24.9359 27.3027 25 26.891 25Z" fill="#A0A0A0"/>
<path d="M30.8293 24.8718V18.7179H31.7317V19.6474H31.795C31.9059 19.3429 32.1064 19.0959 32.3967 18.9062C32.6869 18.7166 33.0141 18.6218 33.3783 18.6218C33.4469 18.6218 33.5326 18.6231 33.6355 18.6258C33.7385 18.6285 33.8163 18.6325 33.8691 18.6378V19.5994C33.8374 19.5913 33.7648 19.5793 33.6514 19.5633C33.5405 19.5446 33.4231 19.5353 33.2991 19.5353C33.0036 19.5353 32.7397 19.598 32.5075 19.7236C32.2779 19.8464 32.0959 20.0174 31.9613 20.2364C31.8294 20.4527 31.7634 20.6998 31.7634 20.9776V24.8718H30.8293Z" fill="#A0A0A0"/>
<path d="M3.33333 8.18938V0H6.06705C6.70176 0 7.22058 0.115963 7.62353 0.347889C8.02911 0.577149 8.32934 0.887716 8.52423 1.27959C8.71912 1.67147 8.81657 2.10866 8.81657 2.59117C8.81657 3.07368 8.71912 3.51221 8.52423 3.90675C8.33198 4.30129 8.03438 4.61586 7.63143 4.85045C7.22848 5.08237 6.71229 5.19834 6.08285 5.19834H4.12343V4.31862H6.05125C6.4858 4.31862 6.83475 4.24264 7.09812 4.09069C7.36148 3.93874 7.55242 3.73347 7.67094 3.47489C7.79208 3.21364 7.85266 2.91907 7.85266 2.59117C7.85266 2.26328 7.79208 1.97004 7.67094 1.71145C7.55242 1.45287 7.36017 1.25027 7.09417 1.10365C6.82817 0.954361 6.47526 0.879718 6.03545 0.879718H4.31305V8.18938H3.33333Z" fill="#A0A0A0"/>
<path d="M11.2007 0V8.18938H10.2684V0H11.2007Z" fill="#A0A0A0"/>
<path d="M14.6939 8.33333C14.3093 8.33333 13.9604 8.26002 13.647 8.1134C13.3336 7.96412 13.0847 7.74952 12.9004 7.46961C12.716 7.18703 12.6238 6.84581 12.6238 6.44594C12.6238 6.09405 12.6923 5.80881 12.8292 5.59021C12.9662 5.36895 13.1492 5.19567 13.3784 5.07038C13.6075 4.94508 13.8603 4.85178 14.1368 4.79047C14.416 4.72649 14.6965 4.67584 14.9783 4.63852C15.347 4.59053 15.6459 4.55454 15.875 4.53055C16.1068 4.50389 16.2754 4.45991 16.3807 4.39859C16.4887 4.33728 16.5427 4.23065 16.5427 4.07869V4.0467C16.5427 3.65216 16.436 3.3456 16.2227 3.127C16.012 2.9084 15.692 2.7991 15.2627 2.7991C14.8176 2.7991 14.4687 2.89774 14.2159 3.09501C13.963 3.29228 13.7853 3.50288 13.6825 3.72681L12.7976 3.40691C12.9557 3.0337 13.1663 2.74312 13.4297 2.53519C13.6957 2.32459 13.9854 2.17797 14.2988 2.09533C14.6149 2.01002 14.9256 1.96737 15.2311 1.96737C15.426 1.96737 15.6499 1.99136 15.9027 2.03935C16.1582 2.08467 16.4044 2.1793 16.6414 2.32326C16.8811 2.46721 17.0799 2.68447 17.238 2.97505C17.396 3.26562 17.475 3.65483 17.475 4.14267V8.18938H16.5427V7.35765H16.4953C16.4321 7.49094 16.3267 7.63356 16.1792 7.78551C16.0317 7.93746 15.8355 8.06675 15.5906 8.17338C15.3457 8.28002 15.0468 8.33333 14.6939 8.33333ZM14.8361 7.4856C15.2048 7.4856 15.5156 7.41229 15.7684 7.26568C16.0238 7.11906 16.2161 6.92978 16.3451 6.69786C16.4768 6.46593 16.5427 6.22201 16.5427 5.96609V5.10237C16.5032 5.15035 16.4163 5.19434 16.2819 5.23432C16.1503 5.27165 15.9975 5.30497 15.8237 5.33429C15.6525 5.36095 15.4853 5.38494 15.322 5.40627C15.1613 5.42493 15.031 5.44093 14.9309 5.45425C14.6886 5.48624 14.4621 5.53823 14.2514 5.6102C14.0434 5.67952 13.8748 5.78482 13.7458 5.9261C13.6193 6.06473 13.5561 6.254 13.5561 6.49392C13.5561 6.82182 13.676 7.06974 13.9156 7.23768C14.1579 7.40296 14.4647 7.4856 14.8361 7.4856Z" fill="#A0A0A0"/>
<path d="M21.6417 8.31734C21.0729 8.31734 20.583 8.18138 20.1722 7.90947C19.7613 7.63756 19.4453 7.26301 19.224 6.78583C19.0028 6.30865 18.8922 5.76349 18.8922 5.15035C18.8922 4.52655 19.0055 3.97606 19.2319 3.49888C19.4611 3.01903 19.7797 2.64449 20.188 2.37524C20.5988 2.10333 21.0781 1.96737 21.6259 1.96737C22.0526 1.96737 22.4371 2.04735 22.7795 2.20729C23.1218 2.36724 23.4023 2.59117 23.6209 2.87908C23.8395 3.16699 23.9751 3.50288 24.0278 3.88676H23.0955C23.0244 3.60685 22.8664 3.35892 22.6214 3.14299C22.3791 2.9244 22.0526 2.8151 21.6417 2.8151C21.2783 2.8151 20.9596 2.91107 20.6857 3.10301C20.4144 3.29228 20.2024 3.56019 20.0497 3.90675C19.8996 4.25064 19.8245 4.65451 19.8245 5.11836C19.8245 5.59288 19.8983 6.00608 20.0457 6.35797C20.1959 6.70985 20.4065 6.9831 20.6778 7.1777C20.9517 7.37231 21.273 7.46961 21.6417 7.46961C21.884 7.46961 22.1039 7.42696 22.3015 7.34165C22.499 7.25634 22.6662 7.13372 22.8032 6.97377C22.9401 6.81382 23.0376 6.62188 23.0955 6.39795H24.0278C23.9751 6.7605 23.8448 7.08707 23.6367 7.37764C23.4313 7.66555 23.1587 7.89481 22.819 8.06542C22.4819 8.23337 22.0894 8.31734 21.6417 8.31734Z" fill="#A0A0A0"/>
<path d="M27.9348 8.31734C27.3501 8.31734 26.8458 8.18671 26.4218 7.92546C26.0004 7.66155 25.6751 7.29367 25.446 6.82182C25.2195 6.3473 25.1063 5.79548 25.1063 5.16635C25.1063 4.53721 25.2195 3.98273 25.446 3.50288C25.6751 3.02037 25.9938 2.64449 26.402 2.37524C26.8129 2.10333 27.2922 1.96737 27.84 1.96737C28.156 1.96737 28.4681 2.02069 28.7762 2.12732C29.0844 2.23395 29.3649 2.40723 29.6177 2.64715C29.8705 2.88441 30.072 3.19898 30.2221 3.59085C30.3722 3.98273 30.4473 4.46524 30.4473 5.03839V5.43826H25.77V4.62252H29.4992C29.4992 4.27597 29.4307 3.96673 29.2938 3.69482C29.1594 3.4229 28.9672 3.20831 28.717 3.05102C28.4694 2.89374 28.1771 2.8151 27.84 2.8151C27.4686 2.8151 27.1473 2.9084 26.8761 3.09501C26.6074 3.27895 26.4007 3.51887 26.2559 3.81478C26.111 4.11068 26.0386 4.42792 26.0386 4.76647V5.3103C26.0386 5.77415 26.1176 6.16736 26.2756 6.48992C26.4363 6.80982 26.6588 7.05374 26.9432 7.22169C27.2277 7.38697 27.5582 7.46961 27.9348 7.46961C28.1797 7.46961 28.401 7.43495 28.5985 7.36564C28.7986 7.29367 28.9711 7.18703 29.116 7.04575C29.2608 6.90179 29.3728 6.72318 29.4518 6.50992L30.3525 6.76583C30.2577 7.07507 30.0983 7.34698 29.8745 7.58157C29.6506 7.8135 29.3741 7.99477 29.0449 8.1254C28.7157 8.25336 28.3457 8.31734 27.9348 8.31734Z" fill="#A0A0A0"/>
</g>
</svg>
