<svg width="16" height="8" viewBox="0 0 16 8" fill="none" xmlns="http://www.w3.org/2000/svg">
<mask id="mask0_1_4518" style="mask-type:alpha" maskUnits="userSpaceOnUse" x="-2" y="-5" width="19" height="18">
<rect x="-1.24902" y="-5" width="18" height="18" fill="white"/>
</mask>
<g mask="url(#mask0_1_4518)">
<path d="M6.12164 1.879C5.70212 1.45935 5.16757 1.17354 4.5856 1.05771C4.00364 0.941883 3.40039 1.00124 2.85216 1.22828C2.30393 1.45531 1.83534 1.83983 1.50565 2.3332C1.17597 2.82656 1 3.40662 1 4C1 4.59338 1.17597 5.17344 1.50565 5.66681C1.83534 6.16017 2.30393 6.54469 2.85216 6.77173C3.40039 6.99876 4.00364 7.05812 4.5856 6.94229C5.16757 6.82646 5.70212 6.54065 6.12164 6.121C6.78733 5.51731 7.3391 4.79889 7.75064 4C8.16219 3.20112 8.71396 2.4827 9.37964 1.879C9.79916 1.45935 10.3337 1.17354 10.9157 1.05771C11.4976 0.941883 12.1009 1.00124 12.6491 1.22828C13.1974 1.45531 13.6659 1.83983 13.9956 2.3332C14.3253 2.82656 14.5013 3.40662 14.5013 4C14.5013 4.59338 14.3253 5.17344 13.9956 5.66681C13.6659 6.16017 13.1974 6.54469 12.6491 6.77173C12.1009 6.99876 11.4976 7.05812 10.9157 6.94229C10.3337 6.82646 9.79916 6.54065 9.37964 6.121C8.71396 5.51731 8.16219 4.79889 7.75064 4C7.3391 3.20112 6.78733 2.4827 6.12164 1.879" stroke="black" stroke-width="2" stroke-linecap="round" stroke-linejoin="round"/>
</g>
</svg>
