<svg width="64" height="76" viewBox="0 0 64 76" fill="none" xmlns="http://www.w3.org/2000/svg">
<g filter="url(#filter0_d_6_2472)">
<circle cx="32" cy="28" r="28" fill="#F97316"/>
</g>
<rect x="20" y="68" width="24" height="8" rx="4" fill="#F97316"/>
<mask id="mask0_6_2472" style="mask-type:alpha" maskUnits="userSpaceOnUse" x="20" y="16" width="24" height="24">
<rect x="20" y="16" width="24" height="24" fill="white"/>
</mask>
<g mask="url(#mask0_6_2472)">
<path d="M33 23C33.5304 23 34.0391 23.2107 34.4142 23.5858C34.7893 23.9609 35 24.4696 35 25V37L30 34L25 37V25C25 24.4696 25.2107 23.9609 25.5858 23.5858C25.9609 23.2107 26.4696 23 27 23H33Z" stroke="white" stroke-width="2" stroke-linecap="round" stroke-linejoin="round"/>
<path d="M29.2651 20C29.4409 19.6955 29.6939 19.4428 29.9985 19.2672C30.3031 19.0917 30.6486 18.9995 31.0001 19H37.0001C37.5306 19 38.0393 19.2107 38.4143 19.5858C38.7894 19.9609 39.0001 20.4696 39.0001 21V33L38.0001 32.4" stroke="white" stroke-width="2" stroke-linecap="round" stroke-linejoin="round"/>
</g>
<defs>
<filter id="filter0_d_6_2472" x="0" y="0" width="64" height="64" filterUnits="userSpaceOnUse" color-interpolation-filters="sRGB">
<feFlood flood-opacity="0" result="BackgroundImageFix"/>
<feColorMatrix in="SourceAlpha" type="matrix" values="0 0 0 0 0 0 0 0 0 0 0 0 0 0 0 0 0 0 127 0" result="hardAlpha"/>
<feOffset dy="4"/>
<feGaussianBlur stdDeviation="2"/>
<feComposite in2="hardAlpha" operator="out"/>
<feColorMatrix type="matrix" values="0 0 0 0 0.976471 0 0 0 0 0.450981 0 0 0 0 0.0862745 0 0 0 0.16 0"/>
<feBlend mode="multiply" in2="BackgroundImageFix" result="effect1_dropShadow_6_2472"/>
<feBlend mode="normal" in="SourceGraphic" in2="effect1_dropShadow_6_2472" result="shape"/>
</filter>
</defs>
</svg>
