<svg width="47" height="28" viewBox="0 0 47 28" fill="none" xmlns="http://www.w3.org/2000/svg">
<path fill-rule="evenodd" clip-rule="evenodd" d="M23.4999 24.5976C21.0109 26.6781 17.7821 27.9341 14.254 27.9341C6.38175 27.9341 0 21.6808 0 13.967C0 6.25326 6.38175 0 14.254 0C17.7821 0 21.0109 1.25599 23.4999 3.33654C25.989 1.25599 29.2177 0 32.7458 0C40.6181 0 46.9998 6.25326 46.9998 13.967C46.9998 21.6808 40.6181 27.9341 32.7458 27.9341C29.2177 27.9341 25.989 26.6781 23.4999 24.5976Z" fill="#ED0006"/>
<path fill-rule="evenodd" clip-rule="evenodd" d="M23.5 24.5976C26.5648 22.0358 28.5082 18.2238 28.5082 13.967C28.5082 9.71031 26.5648 5.89834 23.5 3.33653C25.9891 1.25598 29.2178 0 32.7458 0C40.6181 0 46.9999 6.25326 46.9999 13.967C46.9999 21.6808 40.6181 27.9341 32.7458 27.9341C29.2178 27.9341 25.9891 26.6781 23.5 24.5976Z" fill="#F9A000"/>
<path fill-rule="evenodd" clip-rule="evenodd" d="M23.4999 24.5975C26.5646 22.0357 28.508 18.2238 28.508 13.9671C28.508 9.71035 26.5646 5.89841 23.4999 3.3366C20.4351 5.89841 18.4917 9.71035 18.4917 13.9671C18.4917 18.2238 20.4351 22.0357 23.4999 24.5975Z" fill="#FF5E00"/>
</svg>
