<svg width="22" height="16" viewBox="0 0 22 16" fill="none" xmlns="http://www.w3.org/2000/svg">
<mask id="mask0_1_596" style="mask-type:alpha" maskUnits="userSpaceOnUse" x="-1" y="-4" width="24" height="24">
<rect x="-1" y="-4" width="24" height="24" fill="white"/>
</mask>
<g mask="url(#mask0_1_596)">
<path d="M11 10C12.1046 10 13 9.10457 13 8C13 6.89543 12.1046 6 11 6C9.89543 6 9 6.89543 9 8C9 9.10457 9.89543 10 11 10Z" stroke="#FF5757" stroke-width="2" stroke-linecap="round" stroke-linejoin="round"/>
<path d="M21 8C18.333 12.667 15 15 11 15C7 15 3.667 12.667 1 8C3.667 3.333 7 1 11 1C15 1 18.333 3.333 21 8Z" stroke="#FF5757" stroke-width="2" stroke-linecap="round" stroke-linejoin="round"/>
</g>
</svg>
