<svg width="16" height="15" viewBox="0 0 16 15" fill="none" xmlns="http://www.w3.org/2000/svg">
<mask id="mask0_1_6057" style="mask-type:alpha" maskUnits="userSpaceOnUse" x="-3" y="-3" width="21" height="21">
<rect x="-2.14876" y="-2.19469" width="20.0303" height="20.0303" fill="white"/>
</mask>
<g mask="url(#mask0_1_6057)">
<path d="M7.26802 0.687438C7.46039 0.297732 7.55657 0.10288 7.68714 0.0406241C7.80074 -0.0135414 7.93272 -0.0135414 8.04633 0.0406241C8.1769 0.10288 8.27308 0.297732 8.46544 0.687438L10.2904 4.38467C10.3472 4.49972 10.3756 4.55725 10.4171 4.60191C10.4539 4.64145 10.4979 4.6735 10.5469 4.69626C10.6022 4.72196 10.6656 4.73124 10.7926 4.7498L14.8748 5.34648C15.3047 5.40931 15.5196 5.44073 15.6191 5.54572C15.7056 5.63707 15.7463 5.7626 15.7299 5.88735C15.7109 6.03074 15.5553 6.1823 15.2441 6.48543L12.2913 9.36148C12.1992 9.45113 12.1532 9.49596 12.1235 9.5493C12.0972 9.59652 12.0804 9.64841 12.0738 9.70207C12.0665 9.76267 12.0774 9.82599 12.0991 9.95264L12.7958 14.0149C12.8693 14.4434 12.906 14.6576 12.837 14.7848C12.7769 14.8954 12.6701 14.9729 12.5464 14.9959C12.4041 15.0223 12.2117 14.9211 11.827 14.7187L8.1775 12.7995C8.0638 12.7397 8.00694 12.7098 7.94704 12.6981C7.89401 12.6877 7.83946 12.6877 7.78643 12.6981C7.72653 12.7098 7.66967 12.7397 7.55596 12.7995L3.9065 14.7187C3.52174 14.9211 3.32936 15.0223 3.18712 14.9959C3.06335 14.9729 2.95656 14.8954 2.89648 14.7848C2.82743 14.6576 2.86417 14.4434 2.93766 14.0149L3.63439 9.95264C3.65611 9.82599 3.66697 9.76267 3.65962 9.70207C3.65311 9.64841 3.63625 9.59652 3.60995 9.5493C3.58025 9.49596 3.53423 9.45113 3.44218 9.36148L0.489358 6.48543C0.17814 6.1823 0.0225307 6.03074 0.00359505 5.88735C-0.01288 5.7626 0.0278211 5.63707 0.114366 5.54572C0.213837 5.44073 0.428776 5.40931 0.858653 5.34648L4.94089 4.7498C5.06784 4.73124 5.13132 4.72196 5.1866 4.69626C5.23554 4.6735 5.27961 4.64145 5.31635 4.60191C5.35785 4.55725 5.38624 4.49972 5.44303 4.38467L7.26802 0.687438Z" fill="#FF5757"/>
</g>
</svg>
