<svg width="21" height="17" viewBox="0 0 21 17" fill="none" xmlns="http://www.w3.org/2000/svg">
<mask id="mask0_1_4377" style="mask-type:alpha" maskUnits="userSpaceOnUse" x="-2" y="-4" width="25" height="25">
<path d="M-1.82459 -3.78348H22.7931V20.8342H-1.82459V-3.78348Z" fill="white"/>
</mask>
<g mask="url(#mask0_1_4377)">
<path d="M20.9076 2.01809C20.1245 2.36447 19.2941 2.59196 18.4438 2.69302C19.34 2.157 20.0108 1.31342 20.3311 0.319466C19.49 0.820025 18.5679 1.17083 17.6068 1.36059C16.9612 0.669836 16.1055 0.211726 15.1726 0.0574769C14.2398 -0.0967717 13.2822 0.0614837 12.4486 0.50764C11.615 0.953797 10.9522 1.66286 10.5632 2.52459C10.1741 3.38632 10.0807 4.35244 10.2974 5.27275C8.59168 5.18726 6.92304 4.744 5.39977 3.97177C3.87651 3.19953 2.53267 2.11558 1.45552 0.790279C1.07424 1.44516 0.873881 2.18962 0.874953 2.9474C0.874953 4.43472 1.63195 5.74869 2.78282 6.51799C2.10174 6.49655 1.43565 6.31262 0.840078 5.98153V6.03487C0.840284 7.02542 1.18305 7.98543 1.81027 8.75211C2.43748 9.51879 3.31055 10.045 4.28142 10.2414C3.64918 10.4128 2.98623 10.438 2.34278 10.3153C2.61652 11.1679 3.15004 11.9136 3.86866 12.4479C4.58728 12.9822 5.455 13.2784 6.35034 13.295C5.46049 13.9939 4.44162 14.5105 3.35198 14.8154C2.26235 15.1202 1.12331 15.2073 0 15.0716C1.9609 16.3327 4.24357 17.0022 6.57497 17C14.466 17 18.7812 10.463 18.7812 4.79373C18.7812 4.6091 18.7761 4.42241 18.7679 4.23983C19.6078 3.63277 20.3328 2.88075 20.9086 2.01911L20.9076 2.01809Z" fill="black"/>
</g>
</svg>
