<svg width="28" height="8" viewBox="0 0 28 8" fill="none" xmlns="http://www.w3.org/2000/svg">
<mask id="mask0_6_4099" style="mask-type:alpha" maskUnits="userSpaceOnUse" x="19" y="-2" width="11" height="11">
<rect x="19.0264" y="-1.10135" width="10.0521" height="10.0521" fill="white"/>
</mask>
<g mask="url(#mask0_6_4099)">
<path d="M23.7517 0.344988C23.8482 0.149416 23.8965 0.0516297 23.962 0.020387C24.019 -0.00679567 24.0852 -0.00679567 24.1422 0.020387C24.2078 0.0516297 24.256 0.149416 24.3526 0.344987L25.2684 2.20043C25.2969 2.25816 25.3112 2.28703 25.332 2.30945C25.3505 2.32929 25.3726 2.34537 25.3971 2.3568C25.4249 2.3697 25.4567 2.37435 25.5204 2.38366L27.5691 2.68311C27.7848 2.71464 27.8927 2.7304 27.9426 2.7831C27.986 2.82894 28.0065 2.89193 27.9982 2.95454C27.9887 3.0265 27.9106 3.10256 27.7544 3.25468L26.2726 4.69802C26.2264 4.74301 26.2033 4.7655 26.1884 4.79227C26.1752 4.81597 26.1667 4.84201 26.1634 4.86894C26.1598 4.89935 26.1652 4.93113 26.1761 4.99469L26.5258 7.03333C26.5626 7.24835 26.5811 7.35586 26.5464 7.41966C26.5163 7.47517 26.4627 7.5141 26.4006 7.52562C26.3292 7.53885 26.2326 7.48808 26.0395 7.38653L24.2081 6.42338C24.151 6.39337 24.1225 6.37837 24.0924 6.37247C24.0658 6.36725 24.0384 6.36725 24.0118 6.37247C23.9818 6.37837 23.9532 6.39337 23.8962 6.42338L22.0647 7.38653C21.8716 7.48808 21.7751 7.53885 21.7037 7.52562C21.6416 7.5141 21.588 7.47517 21.5578 7.41966C21.5232 7.35586 21.5416 7.24835 21.5785 7.03333L21.9281 4.99469C21.939 4.93113 21.9445 4.89935 21.9408 4.86894C21.9375 4.84201 21.9291 4.81597 21.9159 4.79227C21.901 4.7655 21.8779 4.74301 21.8317 4.69802L20.3498 3.25468C20.1936 3.10256 20.1155 3.0265 20.106 2.95454C20.0978 2.89193 20.1182 2.82894 20.1616 2.7831C20.2115 2.7304 20.3194 2.71464 20.5351 2.68311L22.5838 2.38366C22.6475 2.37435 22.6794 2.3697 22.7071 2.3568C22.7317 2.34537 22.7538 2.32929 22.7722 2.30945C22.793 2.28703 22.8073 2.25816 22.8358 2.20043L23.7517 0.344988Z" fill="#F97316"/>
</g>
<mask id="mask1_6_4099" style="mask-type:alpha" maskUnits="userSpaceOnUse" x="8" y="-2" width="12" height="11">
<rect x="8.97426" y="-1.10135" width="10.0521" height="10.0521" fill="white"/>
</mask>
<g mask="url(#mask1_6_4099)">
<path d="M13.6995 0.344988C13.7961 0.149416 13.8443 0.0516297 13.9099 0.020387C13.9669 -0.00679567 14.0331 -0.00679567 14.0901 0.020387C14.1557 0.0516297 14.2039 0.149416 14.3005 0.344987L15.2163 2.20043C15.2448 2.25816 15.2591 2.28703 15.2799 2.30945C15.2983 2.32929 15.3205 2.34537 15.345 2.3568C15.3728 2.3697 15.4046 2.37435 15.4683 2.38366L17.517 2.68311C17.7327 2.71464 17.8406 2.7304 17.8905 2.7831C17.9339 2.82894 17.9544 2.89193 17.9461 2.95454C17.9366 3.0265 17.8585 3.10256 17.7023 3.25468L16.2204 4.69802C16.1743 4.74301 16.1512 4.7655 16.1362 4.79227C16.1231 4.81597 16.1146 4.84201 16.1113 4.86894C16.1076 4.89935 16.1131 4.93113 16.124 4.99469L16.4736 7.03333C16.5105 7.24835 16.529 7.35586 16.4943 7.41966C16.4642 7.47517 16.4106 7.5141 16.3484 7.52562C16.2771 7.53885 16.1805 7.48808 15.9874 7.38653L14.156 6.42338C14.0989 6.39337 14.0704 6.37837 14.0403 6.37247C14.0137 6.36725 13.9863 6.36725 13.9597 6.37247C13.9296 6.37837 13.9011 6.39337 13.844 6.42338L12.0126 7.38653C11.8195 7.48808 11.7229 7.53885 11.6516 7.52562C11.5894 7.5141 11.5359 7.47517 11.5057 7.41966C11.471 7.35586 11.4895 7.24835 11.5264 7.03333L11.876 4.99469C11.8869 4.93113 11.8924 4.89935 11.8887 4.86894C11.8854 4.84201 11.877 4.81597 11.8638 4.79227C11.8489 4.7655 11.8258 4.74301 11.7796 4.69802L10.2977 3.25468C10.1415 3.10256 10.0634 3.0265 10.0539 2.95454C10.0457 2.89193 10.0661 2.82894 10.1095 2.7831C10.1594 2.7304 10.2673 2.71464 10.483 2.68311L12.5317 2.38366C12.5954 2.37435 12.6272 2.3697 12.655 2.3568C12.6796 2.34537 12.7017 2.32929 12.7201 2.30945C12.7409 2.28703 12.7552 2.25816 12.7837 2.20043L13.6995 0.344988Z" fill="#F97316"/>
</g>
<mask id="mask2_6_4099" style="mask-type:alpha" maskUnits="userSpaceOnUse" x="-2" y="-2" width="11" height="11">
<rect x="-1.07785" y="-1.10135" width="10.0521" height="10.0521" fill="white"/>
</mask>
<g mask="url(#mask2_6_4099)">
<path d="M3.64742 0.344988C3.74396 0.149416 3.79223 0.0516297 3.85776 0.020387C3.91477 -0.00679567 3.981 -0.00679567 4.03801 0.020387C4.10354 0.0516297 4.15181 0.149416 4.24834 0.344987L5.16421 2.20043C5.19271 2.25816 5.20696 2.28703 5.22778 2.30945C5.24622 2.32929 5.26834 2.34537 5.2929 2.3568C5.32064 2.3697 5.3525 2.37435 5.41621 2.38366L7.46486 2.68311C7.68059 2.71464 7.78846 2.7304 7.83837 2.7831C7.88181 2.82894 7.90223 2.89193 7.89396 2.95454C7.88446 3.0265 7.80637 3.10256 7.65019 3.25468L6.16833 4.69802C6.12213 4.74301 6.09904 4.7655 6.08413 4.79227C6.07094 4.81597 6.06247 4.84201 6.0592 4.86894C6.05552 4.89935 6.06097 4.93113 6.07187 4.99469L6.42152 7.03333C6.4584 7.24835 6.47684 7.35586 6.44218 7.41966C6.41203 7.47517 6.35844 7.5141 6.29633 7.52562C6.22494 7.53885 6.1284 7.48808 5.93531 7.38653L4.10384 6.42338C4.04678 6.39337 4.01825 6.37837 3.98819 6.37247C3.96157 6.36725 3.9342 6.36725 3.90758 6.37247C3.87752 6.37837 3.84899 6.39337 3.79193 6.42338L1.96046 7.38653C1.76737 7.48808 1.67083 7.53885 1.59944 7.52562C1.53733 7.5141 1.48374 7.47517 1.45359 7.41966C1.41893 7.35586 1.43737 7.24835 1.47425 7.03333L1.8239 4.99469C1.8348 4.93113 1.84025 4.89935 1.83656 4.86894C1.8333 4.84201 1.82483 4.81597 1.81164 4.79227C1.79673 4.7655 1.77364 4.74301 1.72744 4.69802L0.245582 3.25468C0.0893986 3.10256 0.0113069 3.0265 0.00180416 2.95454C-0.00646378 2.89193 0.0139619 2.82894 0.0573942 2.7831C0.107313 2.7304 0.215179 2.71464 0.430911 2.68311L2.47956 2.38366C2.54327 2.37435 2.57513 2.3697 2.60287 2.3568C2.62743 2.34537 2.64955 2.32929 2.66799 2.30945C2.68881 2.28703 2.70306 2.25816 2.73156 2.20043L3.64742 0.344988Z" fill="#F97316"/>
</g>
</svg>
