<svg width="21" height="17" viewBox="0 0 21 17" fill="none" xmlns="http://www.w3.org/2000/svg">
<mask id="mask0_6_4698" style="mask-type:alpha" maskUnits="userSpaceOnUse" x="-2" y="-4" width="25" height="25">
<path d="M-1.82478 -3.78347H22.7929V20.8342H-1.82478V-3.78347Z" fill="white"/>
</mask>
<g mask="url(#mask0_6_4698)">
<path d="M20.9076 2.01809C20.1245 2.36447 19.2941 2.59196 18.4438 2.69303C19.34 2.15701 20.0108 1.31342 20.3312 0.319466C19.4901 0.820027 18.5679 1.17083 17.6068 1.36059C16.9612 0.669837 16.1055 0.211726 15.1727 0.057477C14.2399 -0.0967719 13.2822 0.0614838 12.4486 0.507641C11.615 0.953798 10.9522 1.66286 10.5632 2.52459C10.1741 3.38632 10.0807 4.35244 10.2974 5.27276C8.5917 5.18727 6.92305 4.74401 5.39978 3.97178C3.87651 3.19954 2.53268 2.11558 1.45552 0.79028C1.07425 1.44516 0.873883 2.18962 0.874955 2.94741C0.874955 4.43473 1.63195 5.7487 2.78283 6.518C2.10175 6.49656 1.43566 6.31263 0.84008 5.98154V6.03488C0.840285 7.02544 1.18306 7.98544 1.81027 8.75212C2.43749 9.5188 3.31055 10.045 4.28143 10.2414C3.64918 10.4128 2.98624 10.438 2.34279 10.3153C2.61652 11.1679 3.15005 11.9136 3.86867 12.4479C4.58728 12.9822 5.45501 13.2784 6.35035 13.2951C5.4605 13.9939 4.44163 14.5105 3.35199 14.8154C2.26235 15.1202 1.12331 15.2073 0 15.0716C1.9609 16.3327 4.24358 17.0022 6.57498 17C14.466 17 18.7813 10.463 18.7813 4.79374C18.7813 4.60911 18.7761 4.42242 18.7679 4.23984C19.6079 3.63277 20.3328 2.88076 20.9087 2.01911L20.9076 2.01809Z" fill="white"/>
</g>
</svg>
