<svg width="51" height="22" viewBox="0 0 51 22" fill="none" xmlns="http://www.w3.org/2000/svg">
<path fill-rule="evenodd" clip-rule="evenodd" d="M9.31871 2.78976C8.72099 3.52065 7.76463 4.09713 6.80828 4.01478C6.68873 3.02653 7.15695 1.97651 7.70486 1.32797C8.30258 0.576481 9.3486 0.0411772 10.1954 0C10.295 1.02943 9.90648 2.03827 9.31871 2.78976ZM10.1853 4.21037C9.3428 4.16026 8.57403 4.4722 7.95307 4.72416C7.55347 4.88631 7.21508 5.02361 6.95763 5.02361C6.66873 5.02361 6.31637 4.87897 5.92075 4.71656C5.40236 4.50375 4.80969 4.26045 4.18818 4.27213C2.76361 4.29272 1.43865 5.12656 0.711425 6.45452C-0.782883 9.11045 0.322905 13.0429 1.7674 15.2047C2.47471 16.2753 3.32148 17.4488 4.43723 17.4077C4.9281 17.3885 5.28119 17.2337 5.64662 17.0735C6.06732 16.889 6.50436 16.6973 7.18676 16.6973C7.84551 16.6973 8.26343 16.884 8.66461 17.0631C9.04607 17.2335 9.41239 17.3971 9.95621 17.3871C11.1118 17.3665 11.839 16.3165 12.5463 15.2459C13.3096 14.0968 13.6451 12.9754 13.696 12.8052L13.7019 12.7855C13.7007 12.7843 13.6913 12.7798 13.6747 12.7719L13.6747 12.7719C13.4195 12.6512 11.4692 11.7286 11.4505 9.25457C11.4317 7.17798 12.9974 6.12585 13.2439 5.96023C13.2589 5.95015 13.269 5.94335 13.2736 5.93981C12.2774 4.41625 10.7233 4.25154 10.1853 4.21037ZM18.185 17.2738V1.22501H24.0128C27.0213 1.22501 29.1233 3.36622 29.1233 6.49569C29.1233 9.62516 26.9815 11.787 23.9331 11.787H20.5958V17.2738H18.185ZM20.5956 3.32505H23.375C25.467 3.32505 26.6625 4.47801 26.6625 6.50599C26.6625 8.53397 25.467 9.69722 23.365 9.69722H20.5956V3.32505ZM37.0831 15.3488C36.4455 16.6047 35.0409 17.3974 33.5266 17.3974C31.2852 17.3974 29.7211 16.0179 29.7211 13.9385C29.7211 11.8796 31.2354 10.6958 34.0347 10.5208L37.0432 10.3355V9.45016C37.0432 8.14278 36.2164 7.43248 34.742 7.43248C33.5266 7.43248 32.64 8.08102 32.4607 9.06927H30.289C30.3587 6.98982 32.2515 5.47656 34.8117 5.47656C37.5712 5.47656 39.3644 6.96923 39.3644 9.28545V17.2738H37.1329V15.3488H37.0831ZM34.174 15.4929C32.8889 15.4929 32.072 14.8547 32.072 13.8767C32.072 12.8679 32.859 12.2811 34.3633 12.1885L37.0431 12.0135V12.9193C37.0431 14.4223 35.8078 15.4929 34.174 15.4929ZM46.7661 17.9018C45.7998 20.7121 44.694 21.6386 42.343 21.6386C42.1636 21.6386 41.5659 21.618 41.4264 21.5768V19.6518C41.5759 19.6724 41.9445 19.693 42.1338 19.693C43.1997 19.693 43.7974 19.2297 44.166 18.0253L44.3852 17.315L40.3007 5.63098H42.8211L45.6603 15.112H45.7101L48.5493 5.63098H51L46.7661 17.9018Z" fill="white"/>
</svg>
