<svg width="18" height="20" viewBox="0 0 18 20" fill="none" xmlns="http://www.w3.org/2000/svg">
<mask id="mask0_6_1889" style="mask-type:alpha" maskUnits="userSpaceOnUse" x="-3" y="-3" width="24" height="25">
<rect x="-3" y="-2.04041" width="24" height="24" fill="white"/>
</mask>
<g mask="url(#mask0_6_1889)">
<path d="M16 4.83258C16.3062 5.00937 16.5601 5.26421 16.7358 5.5711C16.9115 5.87799 17.0026 6.22597 17 6.57958V13.1156C16.9999 13.4722 16.9045 13.8224 16.7235 14.1297C16.5426 14.4371 16.2828 14.6904 15.971 14.8636L9.971 18.6966C9.67395 18.8615 9.33978 18.9481 9 18.9481C8.66022 18.9481 8.32605 18.8615 8.029 18.6966L2.029 14.8636C1.71736 14.6905 1.45763 14.4373 1.27671 14.1301C1.0958 13.823 1.00026 13.4731 1 13.1166V6.57958C1.00008 6.22293 1.09553 5.8728 1.27646 5.56545C1.45739 5.2581 1.71721 5.00473 2.029 4.83158L8.029 1.25958C8.33481 1.08935 8.67901 1 9.029 1C9.37899 1 9.72319 1.08935 10.029 1.25958L16.029 4.83258H16V4.83258Z" stroke="white" stroke-width="2" stroke-linecap="round" stroke-linejoin="round"/>
<path d="M9 12.9596C10.6569 12.9596 12 11.6164 12 9.95959C12 8.30274 10.6569 6.95959 9 6.95959C7.34315 6.95959 6 8.30274 6 9.95959C6 11.6164 7.34315 12.9596 9 12.9596Z" stroke="white" stroke-width="2" stroke-linecap="round" stroke-linejoin="round"/>
</g>
</svg>
