<svg width="58" height="9" viewBox="0 0 58 9" fill="none" xmlns="http://www.w3.org/2000/svg">
<mask id="mask0_1_3894" style="mask-type:alpha" maskUnits="userSpaceOnUse" x="46" y="-2" width="13" height="13">
<rect x="46.7836" y="-1.31681" width="12.0182" height="12.0182" fill="white"/>
</mask>
<g mask="url(#mask0_1_3894)">
<path opacity="0.24" d="M52.4335 0.412463C52.5489 0.178639 52.6066 0.0617278 52.685 0.0243744C52.7531 -0.00812481 52.8323 -0.00812481 52.9005 0.0243744C52.9788 0.0617278 53.0365 0.178639 53.152 0.412462L54.247 2.6308C54.281 2.69983 54.2981 2.73435 54.323 2.76114C54.345 2.78487 54.3715 2.8041 54.4008 2.81775C54.434 2.83318 54.4721 2.83874 54.5482 2.84988L56.9976 3.20788C57.2555 3.24558 57.3845 3.26443 57.4442 3.32743C57.4961 3.38224 57.5205 3.45756 57.5106 3.53241C57.4993 3.61844 57.4059 3.70938 57.2192 3.89126L55.4475 5.61688C55.3922 5.67068 55.3646 5.69757 55.3468 5.72958C55.331 5.75791 55.3209 5.78904 55.317 5.82124C55.3126 5.8576 55.3191 5.89559 55.3321 5.97158L55.7502 8.40896C55.7943 8.66603 55.8163 8.79457 55.7749 8.87085C55.7388 8.93721 55.6748 8.98376 55.6005 8.99752C55.5152 9.01335 55.3997 8.95264 55.1689 8.83124L52.9792 7.67971C52.911 7.64383 52.8769 7.62589 52.8409 7.61884C52.8091 7.6126 52.7764 7.6126 52.7446 7.61884C52.7086 7.62589 52.6745 7.64383 52.6063 7.67971L50.4166 8.83124C50.1857 8.95264 50.0703 9.01335 49.985 8.99752C49.9107 8.98376 49.8466 8.93721 49.8106 8.87085C49.7692 8.79457 49.7912 8.66603 49.8353 8.40896L50.2533 5.97158C50.2664 5.89559 50.2729 5.8576 50.2685 5.82124C50.2646 5.78904 50.2544 5.75791 50.2387 5.72958C50.2209 5.69757 50.1932 5.67068 50.138 5.61688L48.3663 3.89126C48.1796 3.70938 48.0862 3.61844 48.0749 3.53241C48.065 3.45756 48.0894 3.38224 48.1413 3.32743C48.201 3.26443 48.33 3.24558 48.5879 3.20788L51.0372 2.84988C51.1134 2.83874 51.1515 2.83318 51.1847 2.81775C51.214 2.8041 51.2405 2.78487 51.2625 2.76114C51.2874 2.73435 51.3044 2.69983 51.3385 2.6308L52.4335 0.412463Z" fill="#FF5757"/>
</g>
<mask id="mask1_1_3894" style="mask-type:alpha" maskUnits="userSpaceOnUse" x="34" y="-2" width="13" height="13">
<rect x="34.7655" y="-1.31681" width="12.0182" height="12.0182" fill="white"/>
</mask>
<g mask="url(#mask1_1_3894)">
<path opacity="0.24" d="M40.4153 0.412463C40.5308 0.178639 40.5885 0.0617278 40.6668 0.0243744C40.735 -0.00812481 40.8142 -0.00812481 40.8823 0.0243744C40.9607 0.0617278 41.0184 0.178639 41.1338 0.412462L42.2288 2.6308C42.2629 2.69983 42.2799 2.73435 42.3048 2.76114C42.3268 2.78487 42.3533 2.8041 42.3826 2.81775C42.4158 2.83318 42.4539 2.83874 42.5301 2.84988L44.9794 3.20788C45.2373 3.24558 45.3663 3.26443 45.426 3.32743C45.4779 3.38224 45.5023 3.45756 45.4924 3.53241C45.4811 3.61844 45.3877 3.70938 45.201 3.89126L43.4293 5.61688C43.3741 5.67068 43.3464 5.69757 43.3286 5.72958C43.3129 5.75791 43.3027 5.78904 43.2988 5.82124C43.2944 5.8576 43.3009 5.89559 43.314 5.97158L43.732 8.40896C43.7761 8.66603 43.7981 8.79457 43.7567 8.87085C43.7207 8.93721 43.6566 8.98376 43.5823 8.99752C43.497 9.01335 43.3816 8.95264 43.1507 8.83124L40.961 7.67971C40.8928 7.64383 40.8587 7.62589 40.8227 7.61884C40.7909 7.6126 40.7582 7.6126 40.7264 7.61884C40.6904 7.62589 40.6563 7.64383 40.5881 7.67971L38.3984 8.83124C38.1676 8.95264 38.0521 9.01335 37.9668 8.99752C37.8925 8.98376 37.8285 8.93721 37.7924 8.87085C37.751 8.79457 37.773 8.66603 37.8171 8.40896L38.2352 5.97158C38.2482 5.89559 38.2547 5.8576 38.2503 5.82124C38.2464 5.78904 38.2363 5.75791 38.2205 5.72958C38.2027 5.69757 38.1751 5.67068 38.1198 5.61688L36.3481 3.89126C36.1614 3.70938 36.068 3.61844 36.0567 3.53241C36.0468 3.45756 36.0712 3.38224 36.1231 3.32743C36.1828 3.26443 36.3118 3.24558 36.5697 3.20788L39.0191 2.84988C39.0952 2.83874 39.1333 2.83318 39.1665 2.81775C39.1958 2.8041 39.2223 2.78487 39.2443 2.76114C39.2692 2.73435 39.2863 2.69983 39.3203 2.6308L40.4153 0.412463Z" fill="#FF5757"/>
</g>
<mask id="mask2_1_3894" style="mask-type:alpha" maskUnits="userSpaceOnUse" x="22" y="-2" width="13" height="13">
<rect x="22.7473" y="-1.31681" width="12.0182" height="12.0182" fill="white"/>
</mask>
<g mask="url(#mask2_1_3894)">
<path d="M28.3972 0.412463C28.5126 0.178639 28.5703 0.0617278 28.6486 0.0243744C28.7168 -0.00812481 28.796 -0.00812481 28.8641 0.0243744C28.9425 0.0617278 29.0002 0.178639 29.1156 0.412462L30.2106 2.6308C30.2447 2.69983 30.2617 2.73435 30.2866 2.76114C30.3087 2.78487 30.3351 2.8041 30.3645 2.81775C30.3976 2.83318 30.4357 2.83874 30.5119 2.84988L32.9612 3.20788C33.2192 3.24558 33.3481 3.26443 33.4078 3.32743C33.4597 3.38224 33.4842 3.45756 33.4743 3.53241C33.4629 3.61844 33.3695 3.70938 33.1828 3.89126L31.4111 5.61688C31.3559 5.67068 31.3283 5.69757 31.3105 5.72958C31.2947 5.75791 31.2846 5.78904 31.2807 5.82124C31.2762 5.8576 31.2828 5.89559 31.2958 5.97158L31.7138 8.40896C31.7579 8.66603 31.78 8.79457 31.7385 8.87085C31.7025 8.93721 31.6384 8.98376 31.5642 8.99752C31.4788 9.01335 31.3634 8.95264 31.1325 8.83124L28.9429 7.67971C28.8746 7.64383 28.8405 7.62589 28.8046 7.61884C28.7728 7.6126 28.74 7.6126 28.7082 7.61884C28.6723 7.62589 28.6382 7.64383 28.5699 7.67971L26.3802 8.83124C26.1494 8.95264 26.034 9.01335 25.9486 8.99752C25.8744 8.98376 25.8103 8.93721 25.7742 8.87085C25.7328 8.79457 25.7549 8.66603 25.7989 8.40896L26.217 5.97158C26.23 5.89559 26.2365 5.8576 26.2321 5.82124C26.2282 5.78904 26.2181 5.75791 26.2023 5.72958C26.1845 5.69757 26.1569 5.67068 26.1017 5.61688L24.33 3.89126C24.1432 3.70938 24.0499 3.61844 24.0385 3.53241C24.0286 3.45756 24.053 3.38224 24.105 3.32743C24.1647 3.26443 24.2936 3.24558 24.5515 3.20788L27.0009 2.84988C27.0771 2.83874 27.1151 2.83318 27.1483 2.81775C27.1777 2.8041 27.2041 2.78487 27.2262 2.76114C27.2511 2.73435 27.2681 2.69983 27.3022 2.6308L28.3972 0.412463Z" fill="#FF5757"/>
</g>
<mask id="mask3_1_3894" style="mask-type:alpha" maskUnits="userSpaceOnUse" x="10" y="-2" width="13" height="13">
<rect x="10.7291" y="-1.31681" width="12.0182" height="12.0182" fill="white"/>
</mask>
<g mask="url(#mask3_1_3894)">
<path d="M16.379 0.412463C16.4944 0.178639 16.5521 0.0617278 16.6305 0.0243744C16.6986 -0.00812481 16.7778 -0.00812481 16.846 0.0243744C16.9243 0.0617278 16.982 0.178639 17.0974 0.412462L18.1924 2.6308C18.2265 2.69983 18.2435 2.73435 18.2684 2.76114C18.2905 2.78487 18.3169 2.8041 18.3463 2.81775C18.3795 2.83318 18.4175 2.83874 18.4937 2.84988L20.9431 3.20788C21.201 3.24558 21.3299 3.26443 21.3896 3.32743C21.4416 3.38224 21.466 3.45756 21.4561 3.53241C21.4447 3.61844 21.3514 3.70938 21.1646 3.89126L19.3929 5.61688C19.3377 5.67068 19.3101 5.69757 19.2923 5.72958C19.2765 5.75791 19.2664 5.78904 19.2625 5.82124C19.2581 5.8576 19.2646 5.89559 19.2776 5.97158L19.6957 8.40896C19.7397 8.66603 19.7618 8.79457 19.7204 8.87085C19.6843 8.93721 19.6202 8.98376 19.546 8.99752C19.4606 9.01335 19.3452 8.95264 19.1144 8.83124L16.9247 7.67971C16.8564 7.64383 16.8223 7.62589 16.7864 7.61884C16.7546 7.6126 16.7218 7.6126 16.69 7.61884C16.6541 7.62589 16.62 7.64383 16.5518 7.67971L14.3621 8.83124C14.1312 8.95264 14.0158 9.01335 13.9304 8.99752C13.8562 8.98376 13.7921 8.93721 13.7561 8.87085C13.7146 8.79457 13.7367 8.66603 13.7808 8.40896L14.1988 5.97158C14.2118 5.89559 14.2184 5.8576 14.2139 5.82124C14.21 5.78904 14.1999 5.75791 14.1841 5.72958C14.1663 5.69757 14.1387 5.67068 14.0835 5.61688L12.3118 3.89126C12.1251 3.70938 12.0317 3.61844 12.0203 3.53241C12.0104 3.45756 12.0349 3.38224 12.0868 3.32743C12.1465 3.26443 12.2754 3.24558 12.5334 3.20788L14.9827 2.84988C15.0589 2.83874 15.097 2.83318 15.1301 2.81775C15.1595 2.8041 15.1859 2.78487 15.208 2.76114C15.2329 2.73435 15.2499 2.69983 15.284 2.6308L16.379 0.412463Z" fill="#FF5757"/>
</g>
<mask id="mask4_1_3894" style="mask-type:alpha" maskUnits="userSpaceOnUse" x="-2" y="-2" width="13" height="13">
<rect x="-1.28906" y="-1.31681" width="12.0182" height="12.0182" fill="white"/>
</mask>
<g mask="url(#mask4_1_3894)">
<path d="M4.36081 0.412463C4.47623 0.178639 4.53394 0.0617278 4.61228 0.0243744C4.68044 -0.00812481 4.75963 -0.00812481 4.82779 0.0243744C4.90614 0.0617278 4.96385 0.178639 5.07926 0.412462L6.17426 2.6308C6.20833 2.69983 6.22537 2.73435 6.25027 2.76114C6.27231 2.78487 6.29875 2.8041 6.32812 2.81775C6.36129 2.83318 6.39937 2.83874 6.47555 2.84988L8.92488 3.20788C9.18281 3.24558 9.31177 3.26443 9.37145 3.32743C9.42338 3.38224 9.4478 3.45756 9.43792 3.53241C9.42656 3.61844 9.33319 3.70938 9.14646 3.89126L7.37477 5.61688C7.31954 5.67068 7.29192 5.69757 7.27411 5.72958C7.25833 5.75791 7.24821 5.78904 7.2443 5.82124C7.23989 5.8576 7.24641 5.89559 7.25944 5.97158L7.67748 8.40896C7.72157 8.66603 7.74362 8.79457 7.70219 8.87085C7.66614 8.93721 7.60206 8.98376 7.52781 8.99752C7.44246 9.01335 7.32703 8.95264 7.09618 8.83124L4.9065 7.67971C4.83827 7.64383 4.80416 7.62589 4.76822 7.61884C4.7364 7.6126 4.70367 7.6126 4.67185 7.61884C4.63591 7.62589 4.6018 7.64383 4.53357 7.67971L2.3439 8.83124C2.11304 8.95264 1.99762 9.01335 1.91227 8.99752C1.83801 8.98376 1.77393 8.93721 1.73789 8.87085C1.69646 8.79457 1.7185 8.66603 1.76259 8.40896L2.18063 5.97158C2.19366 5.89559 2.20018 5.8576 2.19577 5.82124C2.19187 5.78904 2.18175 5.75791 2.16597 5.72958C2.14815 5.69757 2.12054 5.67068 2.06531 5.61688L0.293614 3.89126C0.106884 3.70938 0.0135184 3.61844 0.00215703 3.53241C-0.007728 3.45756 0.0166926 3.38224 0.0686197 3.32743C0.128302 3.26443 0.257265 3.24558 0.515192 3.20788L2.96453 2.84988C3.0407 2.83874 3.07879 2.83318 3.11196 2.81775C3.14132 2.8041 3.16776 2.78487 3.18981 2.76114C3.21471 2.73435 3.23174 2.69983 3.26582 2.6308L4.36081 0.412463Z" fill="#FF5757"/>
</g>
</svg>
