<svg width="64" height="76" viewBox="0 0 64 76" fill="none" xmlns="http://www.w3.org/2000/svg">
<g filter="url(#filter0_d_1_1856)">
<circle cx="32" cy="28" r="28" fill="#5D17EB"/>
</g>
<rect x="20" y="68" width="24" height="8" rx="4" fill="#5D17EB"/>
<mask id="mask0_1_1856" style="mask-type:alpha" maskUnits="userSpaceOnUse" x="20" y="16" width="24" height="24">
<rect x="20" y="16" width="24" height="24" fill="white"/>
</mask>
<g mask="url(#mask0_1_1856)">
<path d="M23 35.2058C24.3682 34.4159 25.9202 34 27.5 34C29.0798 34 30.6318 34.4159 32 35.2058C33.3682 34.4159 34.9202 34 36.5 34C38.0798 34 39.6318 34.4159 41 35.2058" stroke="white" stroke-width="2" stroke-linecap="round" stroke-linejoin="round"/>
<path d="M23 22.2058C24.3682 21.4159 25.9202 21 27.5 21C29.0798 21 30.6318 21.4159 32 22.2058C33.3682 21.4159 34.9202 21 36.5 21C38.0798 21 39.6318 21.4159 41 22.2058" stroke="white" stroke-width="2" stroke-linecap="round" stroke-linejoin="round"/>
<path d="M23 22.2058V35.2058" stroke="white" stroke-width="2" stroke-linecap="round" stroke-linejoin="round"/>
<path d="M32 22.2058V35.2058" stroke="white" stroke-width="2" stroke-linecap="round" stroke-linejoin="round"/>
<path d="M41 22.2058V35.2058" stroke="white" stroke-width="2" stroke-linecap="round" stroke-linejoin="round"/>
</g>
<defs>
<filter id="filter0_d_1_1856" x="0" y="0" width="64" height="64" filterUnits="userSpaceOnUse" color-interpolation-filters="sRGB">
<feFlood flood-opacity="0" result="BackgroundImageFix"/>
<feColorMatrix in="SourceAlpha" type="matrix" values="0 0 0 0 0 0 0 0 0 0 0 0 0 0 0 0 0 0 127 0" result="hardAlpha"/>
<feOffset dy="4"/>
<feGaussianBlur stdDeviation="2"/>
<feComposite in2="hardAlpha" operator="out"/>
<feColorMatrix type="matrix" values="0 0 0 0 0.976471 0 0 0 0 0.450981 0 0 0 0 0.0862745 0 0 0 0.16 0"/>
<feBlend mode="multiply" in2="BackgroundImageFix" result="effect1_dropShadow_1_1856"/>
<feBlend mode="normal" in="SourceGraphic" in2="effect1_dropShadow_1_1856" result="shape"/>
</filter>
</defs>
</svg>
