<svg width="20" height="21" viewBox="0 0 20 21" fill="none" xmlns="http://www.w3.org/2000/svg">
<mask id="mask0_1_1875" style="mask-type:alpha" maskUnits="userSpaceOnUse" x="-2" y="-2" width="24" height="25">
<rect x="-1.99985" y="-1.26683" width="23.9997" height="23.9997" fill="white"/>
</mask>
<g mask="url(#mask0_1_1875)">
<path d="M6.12606 12.733C6.5701 14.4582 8.13618 15.7329 10 15.7329C11.8638 15.7329 13.4299 14.4582 13.8739 12.733M9.01771 1.49713L2.23548 6.7722C1.78212 7.12481 1.55544 7.30112 1.39213 7.52192C1.24747 7.7175 1.13971 7.93784 1.07414 8.17211C1.00011 8.43657 1.00011 8.72374 1.00011 9.29809V16.5329C1.00011 17.653 1.00011 18.2131 1.21809 18.6409C1.40984 19.0172 1.7158 19.3232 2.09212 19.5149C2.51993 19.7329 3.07998 19.7329 4.20007 19.7329H15.7999C16.92 19.7329 17.4801 19.7329 17.9079 19.5149C18.2842 19.3232 18.5902 19.0172 18.7819 18.6409C18.9999 18.2131 18.9999 17.653 18.9999 16.5329V9.29809C18.9999 8.72374 18.9999 8.43657 18.9259 8.17211C18.8603 7.93784 18.7525 7.7175 18.6079 7.52192C18.4446 7.30112 18.2179 7.12481 17.7645 6.7722L10.9823 1.49714C10.631 1.22389 10.4553 1.08726 10.2613 1.03474C10.0902 0.988403 9.9098 0.988403 9.73866 1.03474C9.54469 1.08726 9.36903 1.22389 9.01771 1.49713Z" stroke="black" stroke-width="2" stroke-linecap="round" stroke-linejoin="round"/>
</g>
</svg>
