<svg width="20" height="19" viewBox="0 0 20 19" fill="none" xmlns="http://www.w3.org/2000/svg">
<mask id="mask0_1_4372" style="mask-type:alpha" maskUnits="userSpaceOnUse" x="-4" y="-4" width="27" height="27">
<path d="M-3.08492 -3.14689H22.0986V22.0367H-3.08492V-3.14689Z" fill="white"/>
</mask>
<g mask="url(#mask0_1_4372)">
<path d="M4.19726 2.09968C4.19698 2.65627 3.97561 3.18995 3.58184 3.58333C3.18808 3.9767 2.65417 4.19754 2.09758 4.19726C1.54099 4.19698 1.00731 3.97561 0.613932 3.58184C0.22056 3.18808 -0.000278033 2.65417 2.62708e-07 2.09758C0.000278558 1.54099 0.22165 1.00731 0.615417 0.613932C1.00918 0.22056 1.54309 -0.000278033 2.09968 2.62708e-07C2.65627 0.000278558 3.18995 0.22165 3.58333 0.615417C3.9767 1.00918 4.19754 1.54309 4.19726 2.09968ZM4.26022 5.75129H0.0629591V18.8887H4.26022V5.75129ZM10.8919 5.75129H6.71561V18.8887H10.8499V11.9947C10.8499 8.15423 15.8551 7.79746 15.8551 11.9947V18.8887H19.9999V10.5676C19.9999 4.09338 12.5918 4.33472 10.8499 7.51414L10.8919 5.75129Z" fill="black"/>
</g>
</svg>
