<svg width="300" height="38" viewBox="0 0 300 38" fill="none" xmlns="http://www.w3.org/2000/svg">
<g opacity="0.3">
<path d="M0 37.3436V0H12.4657C15.36 0 17.7259 0.528791 19.5633 1.58637C21.4127 2.6318 22.7818 4.04799 23.6705 5.83493C24.5592 7.62188 25.0035 9.61548 25.0035 11.8157C25.0035 14.016 24.5592 16.0157 23.6705 17.8148C22.7938 19.6139 21.4368 21.0483 19.5993 22.118C17.7619 23.1756 15.408 23.7044 12.5378 23.7044H3.60282V19.6929H12.3937C14.3752 19.6929 15.9665 19.3464 17.1674 18.6536C18.3684 17.9607 19.239 17.0246 19.7795 15.8455C20.3319 14.6542 20.6081 13.3109 20.6081 11.8157C20.6081 10.3205 20.3319 8.98337 19.7795 7.80422C19.239 6.62508 18.3624 5.70122 17.1494 5.03263C15.9365 4.35189 14.3272 4.01152 12.3216 4.01152H4.46749V37.3436H0Z" fill="#A0A0A0"/>
<path d="M35.875 0V37.3436H31.6237V0H35.875Z" fill="#A0A0A0"/>
<path d="M51.804 38C50.0506 38 48.4594 37.6657 47.0303 36.9971C45.6011 36.3164 44.4663 35.3378 43.6256 34.0614C42.7849 32.7729 42.3646 31.2169 42.3646 29.3935C42.3646 27.7889 42.6769 26.4882 43.3013 25.4914C43.9258 24.4824 44.7605 23.6923 45.8053 23.1209C46.8501 22.5496 48.003 22.1241 49.264 21.8445C50.537 21.5528 51.816 21.3218 53.101 21.1516C54.7823 20.9328 56.1454 20.7687 57.1902 20.6593C58.247 20.5377 59.0156 20.3372 59.496 20.0576C59.9884 19.778 60.2346 19.2917 60.2346 18.5988V18.453C60.2346 16.6539 59.7482 15.2559 58.7754 14.2591C57.8147 13.2623 56.3555 12.7639 54.398 12.7639C52.3684 12.7639 50.7772 13.2137 49.6243 14.1132C48.4714 15.0128 47.6607 15.9731 47.1924 16.9942L43.1572 15.5355C43.8778 13.8337 44.8385 12.5086 46.0395 11.5605C47.2524 10.6001 48.5735 9.93154 50.0026 9.5547C51.4437 9.16571 52.8608 8.97121 54.2539 8.97121C55.1426 8.97121 56.1634 9.08062 57.3163 9.29942C58.4812 9.50608 59.6041 9.93762 60.6849 10.594C61.7778 11.2505 62.6845 12.2412 63.4051 13.5662C64.1256 14.8912 64.4859 16.666 64.4859 18.8906V37.3436H60.2346V33.5509H60.0184C59.7302 34.1587 59.2498 34.809 58.5773 35.5019C57.9048 36.1948 57.0101 36.7844 55.8932 37.2706C54.7763 37.7569 53.4132 38 51.804 38ZM52.4525 34.1344C54.1338 34.1344 55.5509 33.8001 56.7038 33.1315C57.8687 32.4629 58.7454 31.5998 59.3339 30.5422C59.9343 29.4846 60.2346 28.3724 60.2346 27.2054V23.2668C60.0544 23.4856 59.6581 23.6862 59.0456 23.8685C58.4452 24.0387 57.7486 24.1907 56.956 24.3244C56.1754 24.4459 55.4128 24.5553 54.6682 24.6526C53.9357 24.7377 53.3412 24.8106 52.8848 24.8714C51.78 25.0173 50.7472 25.2543 49.7864 25.5825C48.8377 25.8986 48.0691 26.3788 47.4806 27.023C46.9042 27.6552 46.6159 28.5182 46.6159 29.6123C46.6159 31.1075 47.1624 32.238 48.2552 33.0038C49.3601 33.7575 50.7592 34.1344 52.4525 34.1344Z" fill="#A0A0A0"/>
<path d="M83.4863 37.9271C80.8922 37.9271 78.6585 37.3071 76.785 36.0672C74.9115 34.8273 73.4704 33.1193 72.4616 30.9434C71.4528 28.7674 70.9484 26.2815 70.9484 23.4856C70.9484 20.6411 71.4649 18.1308 72.4977 15.9549C73.5425 13.7668 74.9956 12.0589 76.8571 10.8311C78.7305 9.59117 80.9162 8.97121 83.4142 8.97121C85.3597 8.97121 87.1131 9.33589 88.6743 10.0653C90.2355 10.7946 91.5145 11.8157 92.5113 13.1286C93.5081 14.4415 94.1266 15.9731 94.3668 17.7236H90.1154C89.7912 16.4472 89.0706 15.3167 87.9537 14.3321C86.8489 13.3353 85.3597 12.8369 83.4863 12.8369C81.829 12.8369 80.3758 13.2745 79.1268 14.1497C77.8899 15.0128 76.9231 16.2345 76.2266 17.8148C75.542 19.3829 75.1998 21.2246 75.1998 23.3397C75.1998 25.5035 75.536 27.3877 76.2086 28.9923C76.8931 30.5969 77.8538 31.8429 79.0908 32.7303C80.3398 33.6177 81.8049 34.0614 83.4863 34.0614C84.5911 34.0614 85.5939 33.8669 86.4946 33.4779C87.3953 33.0889 88.1579 32.5298 88.7824 31.8004C89.4069 31.071 89.8512 30.1958 90.1154 29.1747H94.3668C94.1266 30.8279 93.5321 32.317 92.5834 33.642C91.6466 34.9549 90.4037 36.0003 88.8544 36.7783C87.3172 37.5441 85.5278 37.9271 83.4863 37.9271Z" fill="#A0A0A0"/>
<path d="M112.183 37.9271C109.517 37.9271 107.217 37.3314 105.283 36.1401C103.362 34.9367 101.879 33.2591 100.834 31.1075C99.801 28.9437 99.2846 26.4274 99.2846 23.5585C99.2846 20.6897 99.801 18.1612 100.834 15.9731C101.879 13.7729 103.332 12.0589 105.193 10.8311C107.067 9.59117 109.252 8.97121 111.75 8.97121C113.191 8.97121 114.615 9.21433 116.02 9.70057C117.425 10.1868 118.704 10.977 119.857 12.071C121.01 13.1529 121.928 14.5873 122.613 16.3743C123.297 18.1612 123.64 20.3615 123.64 22.975V24.7985H102.311V21.0787H119.316C119.316 19.4984 119.004 18.0883 118.38 16.8484C117.767 15.6084 116.89 14.6299 115.749 13.9127C114.621 13.1955 113.288 12.8369 111.75 12.8369C110.057 12.8369 108.592 13.2623 107.355 14.1132C106.13 14.952 105.187 16.0461 104.527 17.3954C103.866 18.7447 103.536 20.1913 103.536 21.7351V24.215C103.536 26.3301 103.896 28.1232 104.617 29.5941C105.349 31.0528 106.364 32.1651 107.661 32.9309C108.958 33.6846 110.465 34.0614 112.183 34.0614C113.3 34.0614 114.308 33.9034 115.209 33.5873C116.122 33.2591 116.908 32.7729 117.569 32.1286C118.229 31.4722 118.74 30.6577 119.1 29.6852L123.207 30.8522C122.775 32.2623 122.048 33.5022 121.028 34.572C120.007 35.6296 118.746 36.4562 117.245 37.0518C115.743 37.6353 114.056 37.9271 112.183 37.9271Z" fill="#A0A0A0"/>
<path d="M144.95 37.3436V0H149.418V16.6296H169.089V0H173.557V37.3436H169.089V20.6411H149.418V37.3436H144.95Z" fill="#A0A0A0"/>
<path d="M193.165 37.9271C190.667 37.9271 188.475 37.3253 186.59 36.1219C184.716 34.9184 183.251 33.2348 182.194 31.071C181.15 28.9072 180.627 26.3788 180.627 23.4856C180.627 20.5681 181.15 18.0214 182.194 15.8455C183.251 13.6695 184.716 11.9798 186.59 10.7764C188.475 9.57294 190.667 8.97121 193.165 8.97121C195.663 8.97121 197.849 9.57294 199.722 10.7764C201.608 11.9798 203.073 13.6695 204.118 15.8455C205.174 18.0214 205.703 20.5681 205.703 23.4856C205.703 26.3788 205.174 28.9072 204.118 31.071C203.073 33.2348 201.608 34.9184 199.722 36.1219C197.849 37.3253 195.663 37.9271 193.165 37.9271ZM193.165 34.0614C195.062 34.0614 196.624 33.5691 197.849 32.5845C199.074 31.5998 199.98 30.3052 200.569 28.7006C201.157 27.096 201.451 25.3576 201.451 23.4856C201.451 21.6136 201.157 19.8692 200.569 18.2524C199.98 16.6356 199.074 15.3289 197.849 14.3321C196.624 13.3353 195.062 12.8369 193.165 12.8369C191.267 12.8369 189.706 13.3353 188.481 14.3321C187.256 15.3289 186.35 16.6356 185.761 18.2524C185.173 19.8692 184.878 21.6136 184.878 23.4856C184.878 25.3576 185.173 27.096 185.761 28.7006C186.35 30.3052 187.256 31.5998 188.481 32.5845C189.706 33.5691 191.267 34.0614 193.165 34.0614Z" fill="#A0A0A0"/>
<path d="M216.444 0V37.3436H212.192V0H216.444Z" fill="#A0A0A0"/>
<path d="M234.678 37.9271C232.373 37.9271 230.337 37.3375 228.572 36.1583C226.806 34.967 225.425 33.2895 224.428 31.1257C223.432 28.9498 222.933 26.3788 222.933 23.4127C222.933 20.4709 223.432 17.9181 224.428 15.7543C225.425 13.5905 226.812 11.9191 228.59 10.7399C230.367 9.56078 232.421 8.97121 234.75 8.97121C236.552 8.97121 237.975 9.27511 239.02 9.88292C240.077 10.4786 240.881 11.1593 241.434 11.9251C241.998 12.6788 242.436 13.2988 242.749 13.785H243.109V0H247.36V37.3436H243.253V33.0403H242.749C242.436 33.5509 241.992 34.1951 241.416 34.9731C240.839 35.739 240.017 36.4258 238.948 37.0336C237.879 37.6292 236.456 37.9271 234.678 37.9271ZM235.255 34.0614C236.96 34.0614 238.401 33.6116 239.578 32.7121C240.755 31.8004 241.65 30.5422 242.262 28.9376C242.875 27.3209 243.181 25.4549 243.181 23.3397C243.181 21.2489 242.881 19.4194 242.28 17.8512C241.68 16.271 240.791 15.0432 239.614 14.1679C238.437 13.2806 236.984 12.8369 235.255 12.8369C233.453 12.8369 231.952 13.3049 230.751 14.2409C229.562 15.1647 228.668 16.4229 228.067 18.0154C227.479 19.5956 227.185 21.3704 227.185 23.3397C227.185 25.3333 227.485 27.1446 228.085 28.7735C228.698 30.3903 229.598 31.6788 230.787 32.6392C231.988 33.5873 233.477 34.0614 235.255 34.0614Z" fill="#A0A0A0"/>
<path d="M267.338 37.9271C264.672 37.9271 262.372 37.3314 260.439 36.1401C258.517 34.9367 257.034 33.2591 255.989 31.1075C254.956 28.9437 254.44 26.4274 254.44 23.5585C254.44 20.6897 254.956 18.1612 255.989 15.9731C257.034 13.7729 258.487 12.0589 260.348 10.8311C262.222 9.59117 264.408 8.97121 266.906 8.97121C268.347 8.97121 269.77 9.21433 271.175 9.70057C272.58 10.1868 273.859 10.977 275.012 12.071C276.165 13.1529 277.084 14.5873 277.768 16.3743C278.453 18.1612 278.795 20.3615 278.795 22.975V24.7985H257.466V21.0787H274.472C274.472 19.4984 274.159 18.0883 273.535 16.8484C272.922 15.6084 272.046 14.6299 270.905 13.9127C269.776 13.1955 268.443 12.8369 266.906 12.8369C265.212 12.8369 263.747 13.2623 262.51 14.1132C261.285 14.952 260.342 16.0461 259.682 17.3954C259.021 18.7447 258.691 20.1913 258.691 21.7351V24.215C258.691 26.3301 259.051 28.1232 259.772 29.5941C260.505 31.0528 261.519 32.1651 262.816 32.9309C264.113 33.6846 265.621 34.0614 267.338 34.0614C268.455 34.0614 269.464 33.9034 270.364 33.5873C271.277 33.2591 272.064 32.7729 272.724 32.1286C273.385 31.4722 273.895 30.6577 274.255 29.6852L278.363 30.8522C277.93 32.2623 277.204 33.5022 276.183 34.572C275.162 35.6296 273.901 36.4562 272.4 37.0518C270.899 37.6353 269.211 37.9271 267.338 37.9271Z" fill="#A0A0A0"/>
<path d="M285.262 37.3436V9.33589H289.369V13.5662H289.657C290.162 12.1804 291.074 11.056 292.396 10.1929C293.717 9.32981 295.206 8.89827 296.863 8.89827C297.175 8.89827 297.566 8.90435 298.034 8.91651C298.502 8.92866 298.857 8.9469 299.097 8.97121V13.3474C298.953 13.3109 298.622 13.2562 298.106 13.1833C297.602 13.0982 297.067 13.0557 296.503 13.0557C295.158 13.0557 293.957 13.3413 292.9 13.9127C291.855 14.4718 291.026 15.2498 290.414 16.2466C289.814 17.2313 289.513 18.3557 289.513 19.62V37.3436H285.262Z" fill="#A0A0A0"/>
</g>
</svg>
