<svg width="66" height="48" viewBox="0 0 66 48" fill="none" xmlns="http://www.w3.org/2000/svg">
<g opacity="0.3">
<path d="M0 47.7538V32H1.88467V39.0154H10.1833V32H12.0679V47.7538H10.1833V40.7077H1.88467V47.7538H0Z" fill="#666666"/>
<path d="M20.34 48C19.2862 48 18.3616 47.7462 17.5662 47.2385C16.7758 46.7308 16.1577 46.0205 15.7119 45.1077C15.2711 44.1949 15.0507 43.1282 15.0507 41.9077C15.0507 40.6769 15.2711 39.6026 15.7119 38.6846C16.1577 37.7667 16.7758 37.0538 17.5662 36.5462C18.3616 36.0385 19.2862 35.7846 20.34 35.7846C21.3937 35.7846 22.3158 36.0385 23.1062 36.5462C23.9016 37.0538 24.5197 37.7667 24.9604 38.6846C25.4063 39.6026 25.6292 40.6769 25.6292 41.9077C25.6292 43.1282 25.4063 44.1949 24.9604 45.1077C24.5197 46.0205 23.9016 46.7308 23.1062 47.2385C22.3158 47.7462 21.3937 48 20.34 48ZM20.34 46.3692C21.1404 46.3692 21.7991 46.1615 22.3158 45.7462C22.8326 45.3308 23.2151 44.7846 23.4633 44.1077C23.7116 43.4308 23.8357 42.6974 23.8357 41.9077C23.8357 41.118 23.7116 40.3821 23.4633 39.7C23.2151 39.0179 22.8326 38.4667 22.3158 38.0462C21.7991 37.6256 21.1404 37.4154 20.34 37.4154C19.5395 37.4154 18.8809 37.6256 18.3641 38.0462C17.8473 38.4667 17.4648 39.0179 17.2166 39.7C16.9683 40.3821 16.8442 41.118 16.8442 41.9077C16.8442 42.6974 16.9683 43.4308 17.2166 44.1077C17.4648 44.7846 17.8473 45.3308 18.3641 45.7462C18.8809 46.1615 19.5395 46.3692 20.34 46.3692Z" fill="#666666"/>
<path d="M30.1604 32V47.7538H28.3669V32H30.1604Z" fill="#666666"/>
<path d="M37.8529 48C36.8802 48 36.0215 47.7513 35.2767 47.2538C34.532 46.7513 33.9493 46.0436 33.5288 45.1308C33.1083 44.2128 32.8981 43.1282 32.8981 41.8769C32.8981 40.6359 33.1083 39.559 33.5288 38.6462C33.9493 37.7333 34.5345 37.0282 35.2843 36.5308C36.0341 36.0333 36.9005 35.7846 37.8833 35.7846C38.6433 35.7846 39.2436 35.9128 39.6844 36.1692C40.1302 36.4205 40.4697 36.7077 40.7027 37.0308C40.9408 37.3487 41.1258 37.6103 41.2575 37.8154H41.4095V32H43.2029V47.7538H41.4703V45.9385H41.2575C41.1258 46.1538 40.9383 46.4256 40.6951 46.7538C40.4519 47.0769 40.1049 47.3667 39.654 47.6231C39.2031 47.8744 38.6027 48 37.8529 48ZM38.0961 46.3692C38.8155 46.3692 39.4235 46.1795 39.92 45.8C40.4165 45.4154 40.7939 44.8846 41.0523 44.2077C41.3107 43.5256 41.4399 42.7385 41.4399 41.8462C41.4399 40.9641 41.3132 40.1923 41.0599 39.5308C40.8066 38.8641 40.4317 38.3462 39.9352 37.9769C39.4387 37.6026 38.8257 37.4154 38.0961 37.4154C37.3362 37.4154 36.7029 37.6128 36.1962 38.0077C35.6947 38.3974 35.3172 38.9282 35.0639 39.6C34.8157 40.2667 34.6915 41.0154 34.6915 41.8462C34.6915 42.6872 34.8182 43.4513 35.0715 44.1385C35.3299 44.8205 35.7099 45.3641 36.2114 45.7692C36.7181 46.1692 37.3463 46.3692 38.0961 46.3692Z" fill="#666666"/>
<path d="M51.6307 48C50.506 48 49.5358 47.7487 48.7202 47.2462C47.9095 46.7385 47.2838 46.0308 46.8431 45.1231C46.4074 44.2103 46.1895 43.1487 46.1895 41.9385C46.1895 40.7282 46.4074 39.6615 46.8431 38.7385C47.2838 37.8103 47.8969 37.0872 48.6822 36.5692C49.4725 36.0462 50.3946 35.7846 51.4484 35.7846C52.0563 35.7846 52.6567 35.8872 53.2494 36.0923C53.8422 36.2974 54.3818 36.6308 54.8681 37.0923C55.3545 37.5487 55.7421 38.1538 56.0308 38.9077C56.3196 39.6615 56.464 40.5897 56.464 41.6923V42.4615H47.4662V40.8923H54.6401C54.6401 40.2256 54.5084 39.6308 54.245 39.1077C53.9866 38.5846 53.6167 38.1718 53.1354 37.8692C52.6592 37.5667 52.0969 37.4154 51.4484 37.4154C50.734 37.4154 50.1159 37.5949 49.5941 37.9538C49.0773 38.3077 48.6796 38.7692 48.401 39.3385C48.1223 39.9077 47.983 40.5179 47.983 41.1692V42.2154C47.983 43.1077 48.135 43.8641 48.439 44.4846C48.748 45.1 49.1761 45.5692 49.7233 45.8923C50.2704 46.2103 50.9063 46.3692 51.6307 46.3692C52.1019 46.3692 52.5275 46.3026 52.9075 46.1692C53.2925 46.0308 53.6243 45.8256 53.903 45.5538C54.1816 45.2769 54.397 44.9333 54.5489 44.5231L56.2816 45.0154C56.0992 45.6103 55.7927 46.1333 55.3621 46.5846C54.9314 47.0308 54.3995 47.3795 53.7662 47.6308C53.1329 47.8769 52.4211 48 51.6307 48Z" fill="#666666"/>
<path d="M59.1922 47.7538V35.9385H60.9249V37.7231H61.0465C61.2593 37.1385 61.6443 36.6641 62.2016 36.3C62.7589 35.9359 63.3871 35.7538 64.0863 35.7538C64.218 35.7538 64.3827 35.7564 64.5802 35.7615C64.7778 35.7667 64.9273 35.7744 65.0286 35.7846V37.6308C64.9678 37.6154 64.8285 37.5923 64.6106 37.5615C64.3978 37.5256 64.1724 37.5077 63.9343 37.5077C63.3668 37.5077 62.8602 37.6282 62.4144 37.8692C61.9736 38.1051 61.6241 38.4333 61.3657 38.8538C61.1124 39.2692 60.9857 39.7436 60.9857 40.2769V47.7538H59.1922Z" fill="#666666"/>
<path d="M6.4 15.7236V0H11.6487C12.8674 0 13.8635 0.222649 14.6372 0.667946C15.4159 1.10813 15.9923 1.70442 16.3665 2.45681C16.7407 3.20921 16.9278 4.04862 16.9278 4.97505C16.9278 5.90147 16.7407 6.74344 16.3665 7.50096C15.9974 8.25848 15.426 8.86244 14.6523 9.31286C13.8787 9.75816 12.8876 9.98081 11.6791 9.98081H7.91698V8.29175H11.6184C12.4527 8.29175 13.1227 8.14587 13.6284 7.85413C14.134 7.56238 14.5006 7.16827 14.7282 6.67178C14.9608 6.17019 15.0771 5.60461 15.0771 4.97505C15.0771 4.34549 14.9608 3.78247 14.7282 3.28599C14.5006 2.78951 14.1315 2.40051 13.6208 2.119C13.1101 1.83237 12.4325 1.68906 11.5881 1.68906H8.28105V15.7236H6.4Z" fill="#666666"/>
<path d="M21.5053 0V15.7236H19.7153V0H21.5053Z" fill="#666666"/>
<path d="M28.2122 16C27.4739 16 26.8039 15.8592 26.2022 15.5777C25.6005 15.2911 25.1226 14.8791 24.7687 14.3417C24.4147 13.7991 24.2377 13.144 24.2377 12.3762C24.2377 11.7006 24.3692 11.1529 24.6321 10.7332C24.8951 10.3084 25.2465 9.97569 25.6864 9.73513C26.1264 9.49456 26.6118 9.31542 27.1427 9.1977C27.6787 9.07486 28.2173 8.97761 28.7583 8.90595C29.4662 8.81382 30.0402 8.74472 30.4801 8.69866C30.9251 8.64747 31.2487 8.56302 31.451 8.4453C31.6583 8.32758 31.7619 8.12284 31.7619 7.83109V7.76967C31.7619 7.01216 31.5571 6.42354 31.1476 6.00384C30.743 5.58413 30.1287 5.37428 29.3044 5.37428C28.4499 5.37428 27.7799 5.56366 27.2944 5.94242C26.809 6.32118 26.4677 6.72553 26.2705 7.15547L24.5715 6.54127C24.8749 5.8247 25.2794 5.26679 25.785 4.86756C26.2958 4.46321 26.852 4.1817 27.4537 4.02303C28.0605 3.85925 28.6572 3.77735 29.2437 3.77735C29.6179 3.77735 30.0477 3.82342 30.5332 3.91555C31.0237 4.00256 31.4965 4.18426 31.9516 4.46065C32.4117 4.73704 32.7935 5.15419 33.0969 5.71209C33.4003 6.26999 33.552 7.01727 33.552 7.95394V15.7236H31.7619V14.1267H31.6709C31.5496 14.3826 31.3473 14.6564 31.0641 14.9482C30.781 15.2399 30.4042 15.4882 29.934 15.6929C29.4637 15.8976 28.8898 16 28.2122 16ZM28.4853 14.3724C29.1932 14.3724 29.7899 14.2316 30.2753 13.9501C30.7658 13.6686 31.1349 13.3052 31.3827 12.8599C31.6355 12.4146 31.7619 11.9463 31.7619 11.4549V9.79655C31.6861 9.88868 31.5192 9.97313 31.2613 10.0499C31.0085 10.1216 30.7152 10.1855 30.3815 10.2418C30.0528 10.293 29.7317 10.3391 29.4182 10.38C29.1098 10.4159 28.8595 10.4466 28.6673 10.4722C28.2021 10.5336 27.7672 10.6334 27.3627 10.7716C26.9632 10.9047 26.6396 11.1068 26.3918 11.3781C26.1491 11.6443 26.0278 12.0077 26.0278 12.4683C26.0278 13.0979 26.2578 13.5739 26.718 13.8964C27.1832 14.2137 27.7723 14.3724 28.4853 14.3724Z" fill="#666666"/>
<path d="M41.5521 15.9693C40.4599 15.9693 39.5194 15.7083 38.7305 15.1862C37.9417 14.6641 37.3349 13.945 36.9102 13.0288C36.4854 12.1126 36.273 11.0659 36.273 9.88868C36.273 8.69098 36.4905 7.63404 36.9253 6.71785C37.3653 5.79655 37.9771 5.07742 38.7609 4.56046C39.5497 4.03839 40.47 3.77735 41.5218 3.77735C42.3409 3.77735 43.0792 3.9309 43.7366 4.238C44.3939 4.54511 44.9324 4.97505 45.3521 5.52783C45.7718 6.08061 46.0322 6.72553 46.1334 7.46257H44.3433C44.2068 6.92514 43.9034 6.44914 43.4332 6.03455C42.968 5.61484 42.3409 5.40499 41.5521 5.40499C40.8543 5.40499 40.2425 5.58925 39.7166 5.95777C39.1957 6.32118 38.7887 6.83557 38.4954 7.50096C38.2072 8.16123 38.0631 8.93666 38.0631 9.82725C38.0631 10.7383 38.2047 11.5317 38.4878 12.2073C38.776 12.8829 39.1806 13.4075 39.7014 13.7812C40.2273 14.1548 40.8442 14.3417 41.5521 14.3417C42.0173 14.3417 42.4395 14.2598 42.8188 14.096C43.198 13.9322 43.5191 13.6967 43.7821 13.3896C44.045 13.0825 44.2321 12.714 44.3433 12.2841H46.1334C46.0322 12.9802 45.7819 13.6072 45.3825 14.1651C44.9881 14.7179 44.4647 15.158 43.8124 15.4856C43.1652 15.8081 42.4117 15.9693 41.5521 15.9693Z" fill="#666666"/>
<path d="M53.6348 15.9693C52.5123 15.9693 51.5439 15.7185 50.7298 15.2169C49.9208 14.7102 49.2963 14.0038 48.8563 13.0979C48.4215 12.1868 48.204 11.1273 48.204 9.91939C48.204 8.71145 48.4215 7.64683 48.8563 6.72553C49.2963 5.7991 49.9081 5.07742 50.6919 4.56046C51.4807 4.03839 52.401 3.77735 53.4528 3.77735C54.0596 3.77735 54.6588 3.87972 55.2504 4.08445C55.842 4.28919 56.3805 4.62188 56.866 5.08253C57.3514 5.53807 57.7382 6.14203 58.0265 6.89443C58.3147 7.64683 58.4588 8.57326 58.4588 9.6737V10.4415H49.4783V8.87524H56.6384C56.6384 8.20985 56.507 7.61612 56.244 7.09405C55.9861 6.57198 55.617 6.15995 55.1366 5.85797C54.6613 5.55598 54.1 5.40499 53.4528 5.40499C52.7398 5.40499 52.1229 5.58413 51.6021 5.94242C51.0863 6.29559 50.6894 6.75624 50.4112 7.32438C50.1331 7.89251 49.9941 8.5016 49.9941 9.15163V10.1958C49.9941 11.0864 50.1458 11.8413 50.4492 12.4607C50.7576 13.0749 51.1849 13.5432 51.731 13.8656C52.2771 14.183 52.9117 14.3417 53.6348 14.3417C54.1051 14.3417 54.5298 14.2751 54.9091 14.142C55.2934 14.0038 55.6246 13.7991 55.9027 13.5278C56.1808 13.2514 56.3957 12.9085 56.5474 12.499L58.2768 12.9904C58.0947 13.5841 57.7888 14.1062 57.359 14.5566C56.9292 15.0019 56.3982 15.35 55.7662 15.6008C55.1341 15.8464 54.4236 15.9693 53.6348 15.9693Z" fill="#666666"/>
</g>
</svg>
