<svg width="22" height="20" viewBox="0 0 22 20" fill="none" xmlns="http://www.w3.org/2000/svg">
<mask id="mask0_6_607" style="mask-type:alpha" maskUnits="userSpaceOnUse" x="-1" y="-2" width="24" height="24">
<rect x="-0.999954" y="-1.99942" width="23.9989" height="23.9989" fill="white"/>
</mask>
<g mask="url(#mask0_6_607)">
<path d="M16.7995 17.8166L14.6276 18.9546C14.5631 18.9881 14.4906 19.0031 14.4181 18.9978C14.3457 18.9926 14.2761 18.9672 14.2172 18.9247C14.1583 18.8822 14.1123 18.8241 14.0845 18.757C14.0567 18.6899 14.0481 18.6164 14.0596 18.5446L14.4746 16.1337L12.7177 14.4268C12.6652 14.3761 12.6281 14.3117 12.6105 14.2409C12.5929 14.1701 12.5956 14.0958 12.6182 14.0265C12.6408 13.9571 12.6825 13.8955 12.7385 13.8488C12.7944 13.802 12.8624 13.7718 12.9346 13.7618L15.3625 13.4098L16.4485 11.217C16.481 11.1516 16.531 11.0967 16.593 11.0583C16.655 11.0198 16.7265 10.9995 16.7995 10.9995C16.8724 10.9995 16.9439 11.0198 17.0059 11.0583C17.0679 11.0967 17.118 11.1516 17.1505 11.217L18.2364 13.4098L20.6643 13.7618C20.7363 13.7722 20.804 13.8025 20.8597 13.8493C20.9154 13.8962 20.9569 13.9577 20.9795 14.0269C21.0021 14.0961 21.0048 14.1702 20.9875 14.2409C20.9701 14.3115 20.9333 14.3759 20.8813 14.4268L19.1244 16.1337L19.5383 18.5436C19.5508 18.6155 19.5428 18.6894 19.5153 18.7569C19.4879 18.8245 19.442 18.883 19.3829 18.9258C19.3239 18.9686 19.254 18.994 19.1813 18.9991C19.1085 19.0042 19.0358 18.9888 18.9714 18.9546L16.7995 17.8166V17.8166Z" stroke="#F97316" stroke-width="2" stroke-linecap="round" stroke-linejoin="round"/>
<path d="M5.20039 17.8166L3.02849 18.9546C2.96404 18.9881 2.89153 19.0031 2.81906 18.9978C2.74659 18.9926 2.67701 18.9672 2.6181 18.9247C2.55918 18.8822 2.51325 18.8241 2.48542 18.757C2.4576 18.6899 2.44897 18.6164 2.46052 18.5446L2.8755 16.1337L1.11858 14.4268C1.06614 14.3761 1.02901 14.3117 1.01142 14.2409C0.993842 14.1701 0.996518 14.0958 1.01914 14.0265C1.04177 13.9571 1.08344 13.8955 1.13939 13.8488C1.19534 13.802 1.26332 13.7718 1.33557 13.7618L3.76346 13.4098L4.84941 11.217C4.88188 11.1516 4.93194 11.0967 4.99395 11.0583C5.05595 11.0198 5.12745 10.9995 5.20039 10.9995C5.27333 10.9995 5.34483 11.0198 5.40683 11.0583C5.46884 11.0967 5.5189 11.1516 5.55137 11.217L6.63732 13.4098L9.06521 13.7618C9.13725 13.7722 9.20495 13.8025 9.26066 13.8493C9.31636 13.8962 9.35785 13.9577 9.38043 14.0269C9.403 14.0961 9.40577 14.1702 9.38841 14.2409C9.37105 14.3115 9.33426 14.3759 9.2822 14.4268L7.52528 16.1337L7.93927 18.5436C7.95169 18.6155 7.94371 18.6894 7.91624 18.7569C7.88877 18.8245 7.84291 18.883 7.78386 18.9258C7.72482 18.9686 7.65495 18.994 7.5822 18.9991C7.50944 19.0042 7.43672 18.9888 7.37229 18.9546L5.20039 17.8166V17.8166Z" stroke="#F97316" stroke-width="2" stroke-linecap="round" stroke-linejoin="round"/>
<path d="M10.999 7.81711L8.82705 8.95505C8.7626 8.9886 8.69009 9.00357 8.61762 8.99829C8.54515 8.99302 8.47558 8.9677 8.41666 8.92518C8.35775 8.88265 8.31181 8.82459 8.28398 8.75747C8.25616 8.69034 8.24754 8.61681 8.25908 8.54507L8.67406 6.13418L6.91714 4.42726C6.8647 4.37657 6.82757 4.31215 6.80999 4.24136C6.79241 4.17057 6.79508 4.09627 6.81771 4.02693C6.84033 3.95759 6.882 3.896 6.93795 3.84921C6.9939 3.80242 7.06188 3.7723 7.13413 3.76229L9.56202 3.41031L10.648 1.21741C10.6804 1.15209 10.7305 1.09714 10.7925 1.05872C10.8545 1.02031 10.926 0.999954 10.999 0.999954C11.0719 0.999954 11.1434 1.02031 11.2054 1.05872C11.2674 1.09714 11.3175 1.15209 11.3499 1.21741L12.4359 3.41031L14.8638 3.76229C14.9358 3.77265 15.0035 3.80297 15.0592 3.84981C15.1149 3.89664 15.1564 3.95813 15.179 4.02732C15.2016 4.09651 15.2043 4.17063 15.187 4.24131C15.1696 4.31199 15.1328 4.3764 15.0808 4.42726L13.3238 6.13418L13.7378 8.54407C13.7503 8.61594 13.7423 8.68984 13.7148 8.7574C13.6873 8.82496 13.6415 8.88346 13.5824 8.92626C13.5234 8.96907 13.4535 8.99445 13.3808 8.99954C13.308 9.00463 13.2353 8.98922 13.1709 8.95505L10.999 7.81711V7.81711Z" stroke="#F97316" stroke-width="2" stroke-linecap="round" stroke-linejoin="round"/>
</g>
</svg>
