<svg width="19" height="20" viewBox="0 0 19 20" fill="none" xmlns="http://www.w3.org/2000/svg">
<mask id="mask0_1_1884" style="mask-type:alpha" maskUnits="userSpaceOnUse" x="-3" y="-2" width="24" height="24">
<rect x="-2.99989" y="-1.99999" width="23.9999" height="23.9999" fill="white"/>
</mask>
<g mask="url(#mask0_1_1884)">
<path d="M7.00006 2.99999C7.00006 2.46956 7.21077 1.96085 7.58584 1.58578C7.96091 1.21071 8.46962 0.999995 9.00005 0.999995C9.53048 0.999995 10.0392 1.21071 10.4143 1.58578C10.7893 1.96085 11 2.46956 11 2.99999C12.1484 3.54301 13.1274 4.38831 13.8321 5.44527C14.5367 6.50224 14.9405 7.73104 15 8.99996V11.9999C15.0753 12.6216 15.2955 13.217 15.6428 13.7381C15.9902 14.2591 16.4551 14.6913 17 14.9999H1.00009C1.54502 14.6913 2.00989 14.2591 2.35727 13.7381C2.70464 13.217 2.92482 12.6216 3.00008 11.9999V8.99996C3.05964 7.73104 3.46338 6.50224 4.16802 5.44527C4.87267 4.38831 5.85165 3.54301 7.00006 2.99999" stroke="black" stroke-width="2" stroke-linecap="round" stroke-linejoin="round"/>
<path d="M6.00006 14.9999V15.9999C6.00006 16.7956 6.31613 17.5586 6.87874 18.1212C7.44134 18.6838 8.2044 18.9999 9.00005 18.9999C9.79569 18.9999 10.5588 18.6838 11.1214 18.1212C11.684 17.5586 12 16.7956 12 15.9999V14.9999" stroke="black" stroke-width="2" stroke-linecap="round" stroke-linejoin="round"/>
</g>
<circle cx="15" cy="3.99998" r="3.99998" fill="#FF5757"/>
</svg>
