<svg width="49" height="16" viewBox="0 0 49 16" fill="none" xmlns="http://www.w3.org/2000/svg">
<path fill-rule="evenodd" clip-rule="evenodd" d="M12.2505 15.8397H8.00987L4.82991 3.45526C4.67897 2.88557 4.3585 2.38193 3.88708 2.14457C2.71062 1.54805 1.41424 1.07331 0 0.833874V0.357071H6.83134C7.77417 0.357071 8.48129 1.07331 8.59914 1.90513L10.2491 10.8385L14.4877 0.357071H18.6104L12.2505 15.8397ZM20.9675 15.8397H16.9626L20.2604 0.357071H24.2653L20.9675 15.8397ZM29.4467 4.64625C29.5646 3.81236 30.2717 3.33556 31.0967 3.33556C32.3931 3.21584 33.8052 3.45527 34.9838 4.04973L35.6909 0.716237C34.5124 0.239433 33.216 0 32.0395 0C28.1524 0 25.324 2.14458 25.324 5.12099C25.324 7.38529 27.3275 8.5742 28.7417 9.29043C30.2717 10.0046 30.861 10.4814 30.7431 11.1956C30.7431 12.2668 29.5646 12.7436 28.3881 12.7436C26.9739 12.7436 25.5597 12.3866 24.2653 11.79L23.5582 15.1256C24.9725 15.7201 26.5025 15.9595 27.9167 15.9595C32.2752 16.0771 34.9838 13.9346 34.9838 10.7188C34.9838 6.66905 29.4467 6.43168 29.4467 4.64625ZM49 15.8397L45.82 0.357071H42.4044C41.6972 0.357071 40.9901 0.833874 40.7544 1.54805L34.8659 15.8397H38.9887L39.8116 13.5775H44.8772L45.3486 15.8397H49ZM42.9936 4.52654L44.1701 10.3617H40.8723L42.9936 4.52654Z" fill="#172B85"/>
</svg>
