<svg width="15" height="15" viewBox="0 0 15 15" fill="none" xmlns="http://www.w3.org/2000/svg">
<mask id="mask0_1_3873" style="mask-type:alpha" maskUnits="userSpaceOnUse" x="-2" y="-3" width="20" height="20">
<rect x="-1.27119" y="-2.03011" width="18.3051" height="18.3051" fill="white"/>
</mask>
<g mask="url(#mask0_1_3873)">
<path d="M4.0678 7.88514V1.78344C4.0678 1.58116 3.98744 1.38716 3.8444 1.24412C3.70137 1.10109 3.50737 1.02073 3.30508 1.02073H1.77966C1.57738 1.02073 1.38338 1.10109 1.24034 1.24412C1.09731 1.38716 1.01695 1.58116 1.01695 1.78344V7.12243C1.01695 7.32471 1.09731 7.51871 1.24034 7.66174C1.38338 7.80478 1.57738 7.88514 1.77966 7.88514H4.0678ZM4.0678 7.88514C4.87693 7.88514 5.65293 8.20656 6.22507 8.77871C6.79722 9.35085 7.11864 10.1268 7.11864 10.936V11.6987C7.11864 12.1033 7.27936 12.4913 7.56543 12.7773C7.8515 13.0634 8.2395 13.2241 8.64407 13.2241C9.04864 13.2241 9.43663 13.0634 9.7227 12.7773C10.0088 12.4913 10.1695 12.1033 10.1695 11.6987V7.88514H12.4576C12.8622 7.88514 13.2502 7.72442 13.5363 7.43835C13.8223 7.15228 13.9831 6.76428 13.9831 6.35971L13.2203 2.54615C13.1106 2.07825 12.9026 1.67648 12.6274 1.40135C12.3523 1.12623 12.025 0.992645 11.6949 1.02073H6.35593C5.74908 1.02073 5.16708 1.2618 4.73798 1.69091C4.30887 2.12002 4.0678 2.70201 4.0678 3.30887" stroke="#ED0006" stroke-width="2" stroke-linecap="round" stroke-linejoin="round"/>
</g>
</svg>
