<svg width="64" height="76" viewBox="0 0 64 76" fill="none" xmlns="http://www.w3.org/2000/svg">
<g filter="url(#filter0_d_6_1083)">
<circle cx="32" cy="28" r="28" fill="#F97316"/>
</g>
<rect x="20" y="68" width="24" height="8" rx="4" fill="#F97316"/>
<mask id="mask0_6_1083" style="mask-type:alpha" maskUnits="userSpaceOnUse" x="20" y="16" width="24" height="24">
<rect x="20" y="16" width="24" height="24" fill="white"/>
</mask>
<g mask="url(#mask0_6_1083)">
<path d="M40 37C40 35.6044 40 34.9067 39.8278 34.3389C39.44 33.0605 38.4395 32.06 37.1611 31.6722C36.5933 31.5 35.8956 31.5 34.5 31.5H29.5C28.1044 31.5 27.4067 31.5 26.8389 31.6722C25.5605 32.06 24.56 33.0605 24.1722 34.3389C24 34.9067 24 35.6044 24 37M36.5 23.5C36.5 25.9853 34.4853 28 32 28C29.5147 28 27.5 25.9853 27.5 23.5C27.5 21.0147 29.5147 19 32 19C34.4853 19 36.5 21.0147 36.5 23.5Z" stroke="white" stroke-width="2" stroke-linecap="round" stroke-linejoin="round"/>
</g>
<defs>
<filter id="filter0_d_6_1083" x="0" y="0" width="64" height="64" filterUnits="userSpaceOnUse" color-interpolation-filters="sRGB">
<feFlood flood-opacity="0" result="BackgroundImageFix"/>
<feColorMatrix in="SourceAlpha" type="matrix" values="0 0 0 0 0 0 0 0 0 0 0 0 0 0 0 0 0 0 127 0" result="hardAlpha"/>
<feOffset dy="4"/>
<feGaussianBlur stdDeviation="2"/>
<feComposite in2="hardAlpha" operator="out"/>
<feColorMatrix type="matrix" values="0 0 0 0 0.976471 0 0 0 0 0.450981 0 0 0 0 0.0862745 0 0 0 0.16 0"/>
<feBlend mode="multiply" in2="BackgroundImageFix" result="effect1_dropShadow_6_1083"/>
<feBlend mode="normal" in="SourceGraphic" in2="effect1_dropShadow_6_1083" result="shape"/>
</filter>
</defs>
</svg>
