<svg width="22" height="19" viewBox="0 0 22 19" fill="none" xmlns="http://www.w3.org/2000/svg">
<mask id="mask0_1_3303" style="mask-type:alpha" maskUnits="userSpaceOnUse" x="-1" y="-3" width="24" height="24">
<rect x="-1" y="-3" width="24" height="24" fill="white"/>
</mask>
<g mask="url(#mask0_1_3303)">
<path d="M18.5 9.90825C18.5 8.46197 19.62 7.28818 21 7.28818V6.24015C21 2.04803 20 1 16 1H6C2 1 1 2.04803 1 6.24015V6.76416C2.38 6.76416 3.5 7.93796 3.5 9.38424C3.5 10.8305 2.38 12.0043 1 12.0043V12.5283C1 16.7204 2 17.7685 6 17.7685H16C20 17.7685 21 16.7204 21 12.5283C19.62 12.5283 18.5 11.3545 18.5 9.90825Z" fill="white" stroke="black" stroke-width="2" stroke-linecap="round" stroke-linejoin="round"/>
<path d="M8 12.2663L14 5.97815L8 12.2663Z" fill="white"/>
<path d="M8 12.2663L14 5.97815" stroke="black" stroke-width="2" stroke-linecap="round" stroke-linejoin="round"/>
<path fill-rule="evenodd" clip-rule="evenodd" d="M13.9945 12.2663H14.0035H13.9945Z" fill="white"/>
<path d="M13.9945 12.2663H14.0035" stroke="black" stroke-width="2" stroke-linecap="round" stroke-linejoin="round"/>
<path fill-rule="evenodd" clip-rule="evenodd" d="M7.99451 6.50216H8.00349H7.99451Z" fill="white"/>
<path d="M7.99451 6.50216H8.00349" stroke="black" stroke-width="2" stroke-linecap="round" stroke-linejoin="round"/>
</g>
</svg>
