<svg width="18" height="8" viewBox="0 0 18 8" fill="none" xmlns="http://www.w3.org/2000/svg">
<mask id="mask0_6_4115" style="mask-type:alpha" maskUnits="userSpaceOnUse" x="9" y="-2" width="11" height="11">
<rect x="9.00032" y="-1.10455" width="10.0813" height="10.0813" fill="white"/>
</mask>
<g mask="url(#mask0_6_4115)">
<path d="M13.7393 0.345989C13.8361 0.14985 13.8845 0.0517796 13.9503 0.0204462C14.0074 -0.00681541 14.0739 -0.00681541 14.131 0.0204462C14.1968 0.0517796 14.2452 0.149849 14.342 0.345989L15.2605 2.20682C15.2891 2.26472 15.3034 2.29367 15.3243 2.31615C15.3428 2.33606 15.3649 2.35218 15.3896 2.36364C15.4174 2.37658 15.4493 2.38125 15.5132 2.39059L17.5678 2.6909C17.7842 2.72252 17.8924 2.73833 17.9424 2.79118C17.986 2.83715 18.0065 2.90033 17.9982 2.96312C17.9887 3.03529 17.9103 3.11157 17.7537 3.26413L16.2675 4.71166C16.2212 4.75678 16.1981 4.77934 16.1831 4.80619C16.1699 4.82996 16.1614 4.85607 16.1581 4.88308C16.1544 4.91358 16.1599 4.94545 16.1708 5.00919L16.5215 7.05375C16.5585 7.2694 16.577 7.37722 16.5422 7.44121C16.512 7.49687 16.4582 7.53592 16.3959 7.54747C16.3243 7.56074 16.2275 7.50982 16.0339 7.40798L14.1971 6.44204C14.1398 6.41194 14.1112 6.39689 14.0811 6.39098C14.0544 6.38574 14.0269 6.38574 14.0002 6.39098C13.9701 6.39689 13.9415 6.41194 13.8842 6.44204L12.0475 7.40798C11.8538 7.50982 11.757 7.56074 11.6854 7.54747C11.6231 7.53592 11.5694 7.49687 11.5391 7.44121C11.5044 7.37722 11.5229 7.2694 11.5598 7.05375L11.9105 5.00919C11.9214 4.94545 11.9269 4.91358 11.9232 4.88308C11.9199 4.85607 11.9114 4.82996 11.8982 4.80619C11.8833 4.77934 11.8601 4.75678 11.8138 4.71166L10.3276 3.26413C10.171 3.11157 10.0926 3.03529 10.0831 2.96312C10.0748 2.90033 10.0953 2.83715 10.1389 2.79118C10.1889 2.73833 10.2971 2.72252 10.5135 2.6909L12.5681 2.39059C12.632 2.38125 12.6639 2.37658 12.6917 2.36364C12.7164 2.35218 12.7385 2.33606 12.757 2.31615C12.7779 2.29367 12.7922 2.26472 12.8208 2.20682L13.7393 0.345989Z" fill="#F97316"/>
</g>
<mask id="mask1_6_4115" style="mask-type:alpha" maskUnits="userSpaceOnUse" x="-2" y="-2" width="12" height="11">
<rect x="-1.08098" y="-1.10455" width="10.0813" height="10.0813" fill="white"/>
</mask>
<g mask="url(#mask1_6_4115)">
<path d="M3.65802 0.345989C3.75483 0.14985 3.80324 0.0517796 3.86896 0.0204462C3.92613 -0.00681541 3.99256 -0.00681541 4.04974 0.0204462C4.11546 0.0517796 4.16386 0.149849 4.26068 0.345989L5.17921 2.20682C5.20779 2.26472 5.22208 2.29367 5.24296 2.31615C5.26146 2.33606 5.28363 2.35218 5.30827 2.36364C5.33609 2.37658 5.36804 2.38125 5.43194 2.39059L7.48654 2.6909C7.70289 2.72252 7.81107 2.73833 7.86114 2.79118C7.90469 2.83715 7.92518 2.90033 7.91689 2.96312C7.90736 3.03529 7.82904 3.11157 7.6724 3.26413L6.18624 4.71166C6.13991 4.75678 6.11675 4.77934 6.1018 4.80619C6.08857 4.82996 6.08007 4.85607 6.0768 4.88308C6.0731 4.91358 6.07857 4.94545 6.0895 5.00919L6.44017 7.05375C6.47715 7.2694 6.49564 7.37722 6.46089 7.44121C6.43065 7.49687 6.3769 7.53592 6.31461 7.54747C6.24302 7.56074 6.1462 7.50982 5.95255 7.40798L4.11576 6.44204C4.05853 6.41194 4.02992 6.39689 3.99977 6.39098C3.97308 6.38574 3.94562 6.38574 3.91893 6.39098C3.88878 6.39689 3.86017 6.41194 3.80294 6.44204L1.96615 7.40798C1.7725 7.50982 1.67568 7.56074 1.60408 7.54747C1.54179 7.53592 1.48804 7.49687 1.45781 7.44121C1.42305 7.37722 1.44155 7.2694 1.47853 7.05375L1.8292 5.00919C1.84013 4.94545 1.8456 4.91358 1.8419 4.88308C1.83862 4.85607 1.83013 4.82996 1.8169 4.80619C1.80195 4.77934 1.77879 4.75678 1.73246 4.71166L0.246295 3.26413C0.0896582 3.11157 0.0113398 3.03529 0.0018094 2.96312C-0.00648255 2.90033 0.0140024 2.83715 0.0575609 2.79118C0.107625 2.73833 0.215804 2.72252 0.432163 2.6909L2.48676 2.39059C2.55066 2.38125 2.5826 2.37658 2.61043 2.36364C2.63506 2.35218 2.65724 2.33606 2.67573 2.31615C2.69662 2.29367 2.71091 2.26472 2.73949 2.20682L3.65802 0.345989Z" fill="#F97316"/>
</g>
</svg>
