<svg width="18" height="20" viewBox="0 0 18 20" fill="none" xmlns="http://www.w3.org/2000/svg">
<mask id="mask0_1_708" style="mask-type:alpha" maskUnits="userSpaceOnUse" x="-3" y="-2" width="24" height="24">
<rect x="-2.99984" y="-1.99997" width="23.9997" height="23.9997" fill="white"/>
</mask>
<g mask="url(#mask0_1_708)">
<path d="M7.00003 2.99996C7.00003 2.46953 7.21074 1.96083 7.58581 1.58576C7.96087 1.2107 8.46957 0.999986 9 0.999986C9.53043 0.999986 10.0391 1.2107 10.4142 1.58576C10.7893 1.96083 11 2.46953 11 2.99996C12.1484 3.54298 13.1273 4.38827 13.832 5.44523C14.5366 6.50218 14.9404 7.73097 14.9999 8.99988V11.9998C15.0752 12.6215 15.2953 13.2169 15.6427 13.7379C15.9901 14.259 16.455 14.6912 16.9999 14.9998H1.00011C1.54504 14.6912 2.0099 14.259 2.35728 13.7379C2.70465 13.2169 2.92483 12.6215 3.00008 11.9998V8.99988C3.05964 7.73097 3.46338 6.50218 4.16802 5.44523C4.87265 4.38827 5.85163 3.54298 7.00003 2.99996" stroke="#FF5757" stroke-width="2" stroke-linecap="round" stroke-linejoin="round"/>
<path d="M6.00004 14.9998V15.9998C6.00004 16.7954 6.31611 17.5585 6.87871 18.1211C7.44131 18.6837 8.20436 18.9997 9 18.9997C9.79564 18.9997 10.5587 18.6837 11.1213 18.1211C11.6839 17.5585 12 16.7954 12 15.9998V14.9998" stroke="#FF5757" stroke-width="2" stroke-linecap="round" stroke-linejoin="round"/>
</g>
</svg>
