<svg width="18" height="8" viewBox="0 0 18 8" fill="none" xmlns="http://www.w3.org/2000/svg">
<mask id="mask0_1_4117" style="mask-type:alpha" maskUnits="userSpaceOnUse" x="9" y="-2" width="11" height="11">
<rect x="9.00025" y="-1.10454" width="10.0812" height="10.0812" fill="white"/>
</mask>
<g mask="url(#mask0_1_4117)">
<path d="M13.7392 0.345986C13.836 0.149848 13.8844 0.0517792 13.9501 0.020446C14.0073 -0.00681535 14.0737 -0.00681535 14.1309 0.020446C14.1966 0.0517792 14.245 0.149848 14.3419 0.345986L15.2604 2.2068C15.289 2.2647 15.3033 2.29365 15.3241 2.31613C15.3426 2.33604 15.3648 2.35216 15.3894 2.36362C15.4173 2.37656 15.4492 2.38123 15.5131 2.39057L17.5677 2.69087C17.784 2.7225 17.8922 2.73831 17.9423 2.79115C17.9858 2.83713 18.0063 2.90031 17.998 2.9631C17.9885 3.03526 17.9102 3.11154 17.7536 3.26411L16.2674 4.71162C16.2211 4.75674 16.1979 4.7793 16.183 4.80615C16.1697 4.82992 16.1612 4.85603 16.158 4.88304C16.1543 4.91354 16.1597 4.94541 16.1707 5.00915L16.5213 7.05369C16.5583 7.26934 16.5768 7.37716 16.5421 7.44114C16.5118 7.49681 16.4581 7.53586 16.3958 7.5474C16.3242 7.56068 16.2274 7.50976 16.0337 7.40792L14.1969 6.44198C14.1397 6.41188 14.1111 6.39684 14.081 6.39092C14.0543 6.38569 14.0268 6.38569 14.0001 6.39092C13.97 6.39684 13.9414 6.41188 13.8841 6.44198L12.0474 7.40792C11.8537 7.50976 11.7569 7.56068 11.6853 7.5474C11.623 7.53586 11.5693 7.49681 11.539 7.44114C11.5043 7.37716 11.5228 7.26934 11.5597 7.05369L11.9104 5.00915C11.9213 4.94541 11.9268 4.91354 11.9231 4.88304C11.9198 4.85603 11.9113 4.82992 11.8981 4.80615C11.8832 4.7793 11.86 4.75674 11.8137 4.71162L10.3275 3.26411C10.1709 3.11154 10.0926 3.03526 10.083 2.9631C10.0747 2.90031 10.0952 2.83713 10.1388 2.79115C10.1888 2.73831 10.297 2.7225 10.5134 2.69087L12.568 2.39057C12.6319 2.38123 12.6638 2.37656 12.6916 2.36362C12.7163 2.35216 12.7384 2.33604 12.7569 2.31613C12.7778 2.29365 12.7921 2.2647 12.8207 2.2068L13.7392 0.345986Z" fill="#FF5757"/>
</g>
<mask id="mask1_1_4117" style="mask-type:alpha" maskUnits="userSpaceOnUse" x="-2" y="-2" width="12" height="11">
<rect x="-1.08097" y="-1.10454" width="10.0812" height="10.0812" fill="white"/>
</mask>
<g mask="url(#mask1_1_4117)">
<path d="M3.65798 0.345986C3.7548 0.149848 3.80321 0.0517792 3.86892 0.020446C3.9261 -0.00681535 3.99253 -0.00681535 4.0497 0.020446C4.11542 0.0517792 4.16383 0.149848 4.26064 0.345986L5.17916 2.2068C5.20774 2.2647 5.22203 2.29365 5.24292 2.31613C5.26141 2.33604 5.28359 2.35216 5.30822 2.36362C5.33605 2.37656 5.36799 2.38123 5.43189 2.39057L7.48647 2.69087C7.70283 2.7225 7.81101 2.73831 7.86107 2.79115C7.90463 2.83713 7.92511 2.90031 7.91682 2.9631C7.90729 3.03526 7.82897 3.11154 7.67234 3.26411L6.18619 4.71162C6.13986 4.75674 6.11669 4.7793 6.10175 4.80615C6.08851 4.82992 6.08002 4.85603 6.07675 4.88304C6.07305 4.91354 6.07852 4.94541 6.08945 5.00915L6.44011 7.05369C6.4771 7.26934 6.49559 7.37716 6.46084 7.44114C6.4306 7.49681 6.37685 7.53586 6.31456 7.5474C6.24297 7.56068 6.14614 7.50976 5.9525 7.40792L4.11573 6.44198C4.0585 6.41188 4.02988 6.39684 3.99973 6.39092C3.97304 6.38569 3.94559 6.38569 3.9189 6.39092C3.88875 6.39684 3.86013 6.41188 3.8029 6.44198L1.96613 7.40792C1.77249 7.50976 1.67566 7.56068 1.60407 7.5474C1.54178 7.53586 1.48803 7.49681 1.45779 7.44114C1.42304 7.37716 1.44153 7.26934 1.47852 7.05369L1.82918 5.00915C1.84011 4.94541 1.84558 4.91354 1.84188 4.88304C1.83861 4.85603 1.83012 4.82992 1.81688 4.80615C1.80194 4.7793 1.77877 4.75674 1.73244 4.71162L0.246293 3.26411C0.0896574 3.11154 0.0113397 3.03526 0.00180938 2.9631C-0.00648249 2.90031 0.0140023 2.83713 0.0575604 2.79115C0.107624 2.73831 0.215802 2.7225 0.432159 2.69087L2.48674 2.39057C2.55064 2.38123 2.58258 2.37656 2.61041 2.36362C2.63504 2.35216 2.65722 2.33604 2.67571 2.31613C2.6966 2.29365 2.71089 2.2647 2.73947 2.2068L3.65798 0.345986Z" fill="#FF5757"/>
</g>
</svg>
