<svg width="38" height="8" viewBox="0 0 38 8" fill="none" xmlns="http://www.w3.org/2000/svg">
<mask id="mask0_6_4080" style="mask-type:alpha" maskUnits="userSpaceOnUse" x="29" y="-2" width="11" height="11">
<rect x="29.0387" y="-1.09984" width="10.0384" height="10.0384" fill="white"/>
</mask>
<g mask="url(#mask0_6_4080)">
<path d="M33.7575 0.344515C33.8539 0.149211 33.9021 0.051559 33.9675 0.0203591C34.0245 -0.00678636 34.0906 -0.00678636 34.1475 0.0203591C34.213 0.051559 34.2612 0.149211 34.3576 0.344515L35.2722 2.19741C35.3006 2.25507 35.3149 2.2839 35.3357 2.30628C35.3541 2.3261 35.3762 2.34216 35.4007 2.35357C35.4284 2.36645 35.4602 2.3711 35.5238 2.3804L37.5697 2.67943C37.7851 2.71092 37.8928 2.72666 37.9427 2.77928C37.9861 2.82506 38.0065 2.88797 37.9982 2.95049C37.9887 3.02235 37.9107 3.09831 37.7548 3.25023L36.2749 4.69158C36.2288 4.73651 36.2057 4.75898 36.1908 4.78571C36.1777 4.80938 36.1692 4.83538 36.166 4.86227C36.1623 4.89264 36.1677 4.92438 36.1786 4.98785L36.5278 7.0237C36.5646 7.23842 36.583 7.34579 36.5484 7.4095C36.5183 7.46493 36.4648 7.50381 36.4028 7.51531C36.3315 7.52852 36.2351 7.47782 36.0422 7.37642L34.2133 6.41459C34.1563 6.38462 34.1278 6.36963 34.0978 6.36375C34.0712 6.35853 34.0439 6.35853 34.0173 6.36375C33.9873 6.36963 33.9588 6.38462 33.9018 6.41459L32.0728 7.37642C31.88 7.47782 31.7836 7.52852 31.7123 7.51531C31.6503 7.50381 31.5968 7.46493 31.5666 7.4095C31.532 7.34579 31.5505 7.23842 31.5873 7.0237L31.9365 4.98785C31.9473 4.92438 31.9528 4.89264 31.9491 4.86227C31.9458 4.83538 31.9374 4.80938 31.9242 4.78571C31.9093 4.75898 31.8863 4.73651 31.8401 4.69158L30.3603 3.25023C30.2043 3.09831 30.1263 3.02235 30.1169 2.95049C30.1086 2.88797 30.129 2.82506 30.1724 2.77928C30.2222 2.72666 30.3299 2.71092 30.5454 2.67943L32.5912 2.3804C32.6548 2.3711 32.6866 2.36645 32.7144 2.35357C32.7389 2.34216 32.761 2.3261 32.7794 2.30628C32.8002 2.2839 32.8144 2.25507 32.8429 2.19741L33.7575 0.344515Z" fill="#F97316"/>
</g>
<mask id="mask1_6_4080" style="mask-type:alpha" maskUnits="userSpaceOnUse" x="19" y="-2" width="11" height="11">
<rect x="19.0003" y="-1.09984" width="10.0384" height="10.0384" fill="white"/>
</mask>
<g mask="url(#mask1_6_4080)">
<path d="M23.7191 0.344515C23.8155 0.149211 23.8637 0.051559 23.9292 0.0203591C23.9861 -0.00678636 24.0522 -0.00678636 24.1092 0.0203591C24.1746 0.051559 24.2228 0.149211 24.3192 0.344515L25.2338 2.19741C25.2623 2.25507 25.2765 2.2839 25.2973 2.30628C25.3157 2.3261 25.3378 2.34216 25.3623 2.35357C25.3901 2.36645 25.4219 2.3711 25.4855 2.3804L27.5313 2.67943C27.7468 2.71092 27.8545 2.72666 27.9043 2.77928C27.9477 2.82506 27.9681 2.88797 27.9599 2.95049C27.9504 3.02235 27.8724 3.09831 27.7164 3.25023L26.2366 4.69158C26.1904 4.73651 26.1674 4.75898 26.1525 4.78571C26.1393 4.80938 26.1309 4.83538 26.1276 4.86227C26.1239 4.89264 26.1294 4.92438 26.1403 4.98785L26.4894 7.0237C26.5263 7.23842 26.5447 7.34579 26.5101 7.4095C26.48 7.46493 26.4264 7.50381 26.3644 7.51531C26.2931 7.52852 26.1967 7.47782 26.0039 7.37642L24.1749 6.41459C24.1179 6.38462 24.0894 6.36963 24.0594 6.36375C24.0328 6.35853 24.0055 6.35853 23.9789 6.36375C23.9489 6.36963 23.9204 6.38462 23.8634 6.41459L22.0345 7.37642C21.8416 7.47782 21.7452 7.52852 21.6739 7.51531C21.6119 7.50381 21.5584 7.46493 21.5283 7.4095C21.4937 7.34579 21.5121 7.23842 21.5489 7.0237L21.8981 4.98785C21.909 4.92438 21.9144 4.89264 21.9107 4.86227C21.9075 4.83538 21.899 4.80938 21.8859 4.78571C21.871 4.75898 21.8479 4.73651 21.8018 4.69158L20.3219 3.25023C20.166 3.09831 20.088 3.02235 20.0785 2.95049C20.0702 2.88797 20.0906 2.82506 20.134 2.77928C20.1839 2.72666 20.2916 2.71092 20.507 2.67943L22.5529 2.3804C22.6165 2.3711 22.6483 2.36645 22.676 2.35357C22.7005 2.34216 22.7226 2.3261 22.741 2.30628C22.7618 2.2839 22.7761 2.25507 22.8045 2.19741L23.7191 0.344515Z" fill="#F97316"/>
</g>
<mask id="mask2_6_4080" style="mask-type:alpha" maskUnits="userSpaceOnUse" x="8" y="-2" width="12" height="11">
<rect x="8.96197" y="-1.09984" width="10.0384" height="10.0384" fill="white"/>
</mask>
<g mask="url(#mask2_6_4080)">
<path d="M13.6808 0.344515C13.7772 0.149211 13.8254 0.051559 13.8908 0.0203591C13.9478 -0.00678636 14.0139 -0.00678636 14.0708 0.0203591C14.1363 0.051559 14.1845 0.149211 14.2809 0.344515L15.1955 2.19741C15.2239 2.25507 15.2382 2.2839 15.259 2.30628C15.2774 2.3261 15.2995 2.34216 15.324 2.35357C15.3517 2.36645 15.3835 2.3711 15.4471 2.3804L17.493 2.67943C17.7084 2.71092 17.8161 2.72666 17.866 2.77928C17.9094 2.82506 17.9298 2.88797 17.9215 2.95049C17.912 3.02235 17.834 3.09831 17.6781 3.25023L16.1982 4.69158C16.1521 4.73651 16.129 4.75898 16.1141 4.78571C16.101 4.80938 16.0925 4.83538 16.0893 4.86227C16.0856 4.89264 16.091 4.92438 16.1019 4.98785L16.4511 7.0237C16.4879 7.23842 16.5063 7.34579 16.4717 7.4095C16.4416 7.46493 16.3881 7.50381 16.3261 7.51531C16.2548 7.52852 16.1584 7.47782 15.9655 7.37642L14.1366 6.41459C14.0796 6.38462 14.0511 6.36963 14.0211 6.36375C13.9945 6.35853 13.9672 6.35853 13.9406 6.36375C13.9106 6.36963 13.8821 6.38462 13.8251 6.41459L11.9961 7.37642C11.8033 7.47782 11.7069 7.52852 11.6356 7.51531C11.5736 7.50381 11.5201 7.46493 11.4899 7.4095C11.4553 7.34579 11.4738 7.23842 11.5106 7.0237L11.8598 4.98785C11.8706 4.92438 11.8761 4.89264 11.8724 4.86227C11.8691 4.83538 11.8607 4.80938 11.8475 4.78571C11.8326 4.75898 11.8096 4.73651 11.7634 4.69158L10.2836 3.25023C10.1276 3.09831 10.0496 3.02235 10.0402 2.95049C10.0319 2.88797 10.0523 2.82506 10.0957 2.77928C10.1455 2.72666 10.2532 2.71092 10.4687 2.67943L12.5145 2.3804C12.5781 2.3711 12.6099 2.36645 12.6377 2.35357C12.6622 2.34216 12.6843 2.3261 12.7027 2.30628C12.7235 2.2839 12.7377 2.25507 12.7662 2.19741L13.6808 0.344515Z" fill="#F97316"/>
</g>
<mask id="mask3_6_4080" style="mask-type:alpha" maskUnits="userSpaceOnUse" x="-2" y="-2" width="11" height="11">
<rect x="-1.07638" y="-1.09984" width="10.0384" height="10.0384" fill="white"/>
</mask>
<g mask="url(#mask3_6_4080)">
<path d="M3.64243 0.344515C3.73883 0.149211 3.78703 0.051559 3.85247 0.0203591C3.90941 -0.00678636 3.97555 -0.00678636 4.03248 0.0203591C4.09792 0.051559 4.14612 0.149211 4.24253 0.344515L5.15714 2.19741C5.1856 2.25507 5.19983 2.2839 5.22062 2.30628C5.23904 2.3261 5.26112 2.34216 5.28565 2.35357C5.31335 2.36645 5.34517 2.3711 5.40879 2.3804L7.45463 2.67943C7.67007 2.71092 7.77779 2.72666 7.82764 2.77928C7.87101 2.82506 7.89141 2.88797 7.88315 2.95049C7.87366 3.02235 7.79568 3.09831 7.63971 3.25023L6.15988 4.69158C6.11375 4.73651 6.09068 4.75898 6.0758 4.78571C6.06262 4.80938 6.05417 4.83538 6.05091 4.86227C6.04722 4.89264 6.05267 4.92438 6.06355 4.98785L6.41272 7.0237C6.44955 7.23842 6.46797 7.34579 6.43336 7.4095C6.40325 7.46493 6.34973 7.50381 6.28771 7.51531C6.21642 7.52852 6.12001 7.47782 5.92718 7.37642L4.09822 6.41459C4.04124 6.38462 4.01274 6.36963 3.98273 6.36375C3.95615 6.35853 3.92881 6.35853 3.90223 6.36375C3.87221 6.36963 3.84372 6.38462 3.78673 6.41459L1.95777 7.37642C1.76495 7.47782 1.66854 7.52852 1.59725 7.51531C1.53522 7.50381 1.4817 7.46493 1.4516 7.4095C1.41699 7.34579 1.4354 7.23842 1.47223 7.0237L1.8214 4.98785C1.83229 4.92438 1.83773 4.89264 1.83405 4.86227C1.83079 4.83538 1.82233 4.80938 1.80916 4.78571C1.79427 4.75898 1.77121 4.73651 1.72508 4.69158L0.245246 3.25023C0.0892761 3.09831 0.0112914 3.02235 0.00180169 2.95049C-0.00645492 2.88797 0.0139428 2.82506 0.0573156 2.77928C0.107166 2.72666 0.214885 2.71092 0.430321 2.67943L2.47616 2.3804C2.53979 2.3711 2.5716 2.36645 2.5993 2.35357C2.62383 2.34216 2.64592 2.3261 2.66433 2.30628C2.68513 2.2839 2.69936 2.25507 2.72782 2.19741L3.64243 0.344515Z" fill="#F97316"/>
</g>
</svg>
