<svg width="50" height="21" viewBox="0 0 50 21" fill="none" xmlns="http://www.w3.org/2000/svg">
<path fill-rule="evenodd" clip-rule="evenodd" d="M23.0603 15.9702V9.9786H26.1786C27.4564 9.9786 28.535 9.554 29.4142 8.71659L29.6252 8.50429C31.2313 6.77051 31.1258 4.06958 29.4142 2.46554C28.5584 1.61634 27.3861 1.15635 26.1786 1.17994H21.1729V15.9702H23.0603ZM23.0605 8.16214V2.99617H26.2262C26.9063 2.99617 27.5511 3.25565 28.0319 3.72743C29.0519 4.71816 29.0754 6.36938 28.0905 7.3955C27.6098 7.90266 26.9297 8.18573 26.2262 8.16214H23.0605ZM38.4293 6.64073C37.6204 5.89768 36.5185 5.52025 35.1234 5.52025C33.3298 5.52025 31.9816 6.18074 31.0907 7.48993L32.7553 8.53963C33.3649 7.64325 34.1973 7.19507 35.2524 7.19507C35.9206 7.19507 36.5654 7.44275 37.0695 7.89094C37.5618 8.31554 37.8432 8.92885 37.8432 9.57754V10.0139C37.1163 9.61293 36.2019 9.40063 35.0765 9.40063C33.7635 9.40063 32.7085 9.70728 31.923 10.3324C31.1376 10.9575 30.739 11.7831 30.739 12.8328C30.7155 13.7882 31.1258 14.6963 31.8527 15.3096C32.5912 15.9701 33.5291 16.3004 34.631 16.3004C35.9323 16.3004 36.9639 15.7225 37.7494 14.5666H37.8315V15.9701H39.6368V9.73087C39.6368 8.42169 39.2382 7.38378 38.4293 6.64073ZM33.3066 14.1066C32.9197 13.8236 32.6852 13.3636 32.6852 12.8682C32.6852 12.3139 32.9432 11.8539 33.4473 11.4883C33.9632 11.1227 34.6081 10.9339 35.3702 10.9339C36.4255 10.9221 37.2462 11.158 37.8325 11.6298C37.8325 12.4318 37.5159 13.1277 36.8945 13.7174C36.3317 14.2836 35.5696 14.602 34.7723 14.602C34.2446 14.6138 33.7287 14.4369 33.3066 14.1066ZM43.693 20.4166L50.0001 5.85048H47.9485L45.0295 13.1159H44.9943L42.0049 5.85048H39.9534L44.0916 15.3214L41.747 20.4166H43.693Z" fill="#A0A0A0"/>
<path d="M16.5443 8.68122C16.5443 8.10329 16.4974 7.52536 16.4036 6.95923H8.4436V10.2263H13.0039C12.8163 11.276 12.2067 12.2196 11.3158 12.8093V14.9323H14.0355C15.6299 13.458 16.5443 11.276 16.5443 8.68122Z" fill="#4285F4"/>
<path d="M8.44397 16.9845C10.7183 16.9845 12.6408 16.2296 14.0359 14.9323L11.3161 12.8093C10.5541 13.3282 9.58111 13.6231 8.44397 13.6231C6.24002 13.6231 4.37605 12.1252 3.70783 10.1201H0.906006V12.3139C2.33623 15.1799 5.25528 16.9845 8.44397 16.9845Z" fill="#25D366"/>
<path d="M3.70803 10.1202C3.35628 9.07052 3.35628 7.92646 3.70803 6.86496V4.68298H0.905755C-0.301918 7.07726 -0.301918 9.90792 0.905755 12.3022L3.70803 10.1202Z" fill="#FBBC04"/>
<path d="M8.44397 3.36193C9.65145 3.33834 10.812 3.79833 11.6795 4.63573L14.0945 2.20607C12.5588 0.767152 10.5424 -0.0230756 8.44397 0.000513306C5.25528 0.000513306 2.33623 1.81686 0.906006 4.68291L3.70783 6.87668C4.37605 4.85983 6.24002 3.36193 8.44397 3.36193Z" fill="#EA4335"/>
</svg>
