<svg width="15" height="15" viewBox="0 0 15 15" fill="none" xmlns="http://www.w3.org/2000/svg">
<mask id="mask0_1_3878" style="mask-type:alpha" maskUnits="userSpaceOnUse" x="-2" y="-3" width="20" height="20">
<rect x="-1.27119" y="-2.0339" width="18.3051" height="18.3051" fill="white"/>
</mask>
<g mask="url(#mask0_1_3878)">
<path d="M4.0678 6.35593V12.4576C4.0678 12.6599 3.98744 12.8539 3.8444 12.9969C3.70137 13.14 3.50737 13.2203 3.30508 13.2203H1.77966C1.57738 13.2203 1.38338 13.14 1.24034 12.9969C1.09731 12.8539 1.01695 12.6599 1.01695 12.4576V7.11864C1.01695 6.91636 1.09731 6.72236 1.24034 6.57933C1.38338 6.43629 1.57738 6.35593 1.77966 6.35593H4.0678ZM4.0678 6.35593C4.87693 6.35593 5.65293 6.0345 6.22507 5.46236C6.79722 4.89021 7.11864 4.11422 7.11864 3.30508V2.54237C7.11864 2.13781 7.27936 1.74981 7.56543 1.46374C7.8515 1.17766 8.2395 1.01695 8.64407 1.01695C9.04864 1.01695 9.43663 1.17766 9.7227 1.46374C10.0088 1.74981 10.1695 2.13781 10.1695 2.54237V6.35593H12.4576C12.8622 6.35593 13.2502 6.51665 13.5363 6.80272C13.8223 7.08879 13.9831 7.47679 13.9831 7.88136L13.2203 11.6949C13.1106 12.1628 12.9026 12.5646 12.6274 12.8397C12.3523 13.1148 12.025 13.2484 11.6949 13.2203H6.35593C5.74908 13.2203 5.16708 12.9793 4.73798 12.5502C4.30887 12.1211 4.0678 11.5391 4.0678 10.9322" stroke="#4ADE80" stroke-width="2" stroke-linecap="round" stroke-linejoin="round"/>
</g>
</svg>
