<svg width="315" height="40" viewBox="0 0 315 40" fill="none" xmlns="http://www.w3.org/2000/svg">
<g opacity="0.3">
<path d="M0 39.309V0H13.1218C16.1684 0 18.6588 0.556622 20.5929 1.66987C22.5397 2.77031 23.9808 4.26104 24.9163 6.14204C25.8518 8.02303 26.3195 10.1216 26.3195 12.4376C26.3195 14.7537 25.8518 16.8586 24.9163 18.7524C23.9935 20.6462 22.565 22.1561 20.6309 23.2821C18.6967 24.3954 16.219 24.952 13.1977 24.952H3.79244V20.7294H13.046C15.1318 20.7294 16.8068 20.3647 18.071 19.6353C19.3351 18.906 20.2516 17.9207 20.8205 16.6795C21.402 15.4255 21.6927 14.0115 21.6927 12.4376C21.6927 10.8637 21.402 9.45617 20.8205 8.21497C20.2516 6.97377 19.3288 6.00128 18.052 5.29751C16.7752 4.58093 15.0813 4.22265 12.9701 4.22265H4.70262V39.309H0Z" fill="#666666"/>
<path d="M37.7632 0V39.309H33.2881V0H37.7632Z" fill="#666666"/>
<path d="M54.5305 40C52.6849 40 51.0099 39.6481 49.5055 38.9443C48.0012 38.2278 46.8066 37.1977 45.9217 35.8541C45.0368 34.4978 44.5943 32.8599 44.5943 30.9405C44.5943 29.2514 44.923 27.8823 45.5804 26.833C46.2377 25.771 47.1163 24.9392 48.2161 24.3378C49.3159 23.7364 50.5295 23.2885 51.8568 22.9942C53.1968 22.6871 54.5432 22.444 55.8958 22.2649C57.6656 22.0345 59.1004 21.8618 60.2002 21.7466C61.3127 21.6187 62.1217 21.4075 62.6274 21.1132C63.1457 20.8189 63.4048 20.3071 63.4048 19.5777V19.4242C63.4048 17.5304 62.8928 16.0589 61.8689 15.0096C60.8576 13.9603 59.3216 13.4357 57.2611 13.4357C55.1247 13.4357 53.4497 13.9091 52.2361 14.856C51.0225 15.8029 50.1692 16.8138 49.6762 17.8887L45.4287 16.3532C46.1871 14.5617 47.1985 13.167 48.4626 12.1689C49.7394 11.158 51.13 10.4543 52.6343 10.0576C54.1513 9.64811 55.643 9.44338 57.1094 9.44338C58.0448 9.44338 59.1194 9.55854 60.3329 9.78887C61.5592 10.0064 62.7411 10.4607 63.8789 11.1516C65.0292 11.8426 65.9837 12.8855 66.7422 14.2802C67.5006 15.675 67.8799 17.5432 67.8799 19.8848V39.309H63.4048V35.3167H63.1773C62.8739 35.9565 62.3682 36.6411 61.6603 37.3704C60.9524 38.0998 60.0106 38.7204 58.8349 39.2322C57.6593 39.7441 56.2245 40 54.5305 40ZM55.2131 35.9309C56.983 35.9309 58.4746 35.579 59.6882 34.8752C60.9144 34.1715 61.8373 33.263 62.4567 32.1497C63.0888 31.0365 63.4048 29.8656 63.4048 28.6372V24.4914C63.2152 24.7217 62.798 24.9328 62.1533 25.1248C61.5212 25.3039 60.788 25.4639 59.9537 25.6046C59.132 25.7326 58.3293 25.8477 57.5455 25.9501C56.7744 26.0397 56.1486 26.1164 55.6682 26.1804C54.5052 26.334 53.4181 26.5835 52.4067 26.929C51.4081 27.2617 50.599 27.7671 49.9796 28.4453C49.3728 29.1107 49.0694 30.0192 49.0694 31.1708C49.0694 32.7447 49.6446 33.9347 50.795 34.7409C51.958 35.5342 53.4307 35.9309 55.2131 35.9309Z" fill="#666666"/>
<path d="M87.8803 39.9232C85.1497 39.9232 82.7984 39.2706 80.8263 37.9655C78.8543 36.6603 77.3373 34.8624 76.2754 32.572C75.2135 30.2815 74.6826 27.6647 74.6826 24.7217C74.6826 21.7274 75.2262 19.0851 76.3133 16.7946C77.4131 14.4914 78.9427 12.6935 80.9022 11.4012C82.8742 10.096 85.175 9.44338 87.8044 9.44338C89.8523 9.44338 91.698 9.82726 93.3414 10.595C94.9848 11.3628 96.3311 12.4376 97.3803 13.8196C98.4296 15.2015 99.0806 16.8138 99.3334 18.6564H94.8583C94.517 17.3129 93.7585 16.1228 92.5829 15.0864C91.4199 14.0371 89.8523 13.5125 87.8803 13.5125C86.1357 13.5125 84.6061 13.9731 83.2914 14.8944C81.9893 15.8029 80.9717 17.0889 80.2385 18.7524C79.5179 20.4031 79.1577 22.3416 79.1577 24.5681C79.1577 26.8458 79.5116 28.8292 80.2195 30.5182C80.9401 32.2073 81.9514 33.5189 83.2535 34.453C84.5682 35.3871 86.1105 35.8541 87.8803 35.8541C89.0433 35.8541 90.0988 35.6494 91.0469 35.2399C91.9951 34.8305 92.7978 34.2418 93.4551 33.4741C94.1125 32.7063 94.5802 31.785 94.8583 30.7102H99.3334C99.0806 32.4504 98.4548 34.0179 97.4562 35.4127C96.4701 36.7946 95.1617 37.8951 93.531 38.714C91.9129 39.5202 90.0293 39.9232 87.8803 39.9232Z" fill="#666666"/>
<path d="M118.087 39.9232C115.281 39.9232 112.86 39.2962 110.825 38.0422C108.802 36.7754 107.241 35.0096 106.141 32.7447C105.054 30.4671 104.51 27.8183 104.51 24.7985C104.51 21.7786 105.054 19.1171 106.141 16.8138C107.241 14.4978 108.77 12.6935 110.73 11.4012C112.702 10.096 115.003 9.44338 117.632 9.44338C119.149 9.44338 120.647 9.6993 122.126 10.2111C123.605 10.723 124.951 11.5547 126.165 12.7063C127.379 13.8452 128.346 15.3551 129.066 17.2361C129.787 19.1171 130.147 21.4331 130.147 24.1843V26.1036H107.696V22.1881H125.596C125.596 20.5246 125.267 19.0403 124.61 17.7351C123.965 16.4299 123.042 15.3999 121.842 14.6449C120.653 13.89 119.25 13.5125 117.632 13.5125C115.849 13.5125 114.307 13.9603 113.005 14.856C111.716 15.739 110.723 16.8906 110.028 18.3109C109.333 19.7313 108.985 21.254 108.985 22.8791V25.4894C108.985 27.7159 109.364 29.6033 110.123 31.1516C110.894 32.6871 111.962 33.858 113.328 34.6641C114.693 35.4575 116.279 35.8541 118.087 35.8541C119.263 35.8541 120.325 35.6878 121.273 35.3551C122.233 35.0096 123.061 34.4978 123.757 33.8196C124.452 33.1286 124.989 32.2713 125.369 31.2476L129.692 32.476C129.237 33.9603 128.472 35.2655 127.397 36.3916C126.323 37.5048 124.996 38.3749 123.415 39.0019C121.835 39.6161 120.059 39.9232 118.087 39.9232Z" fill="#666666"/>
<path d="M152.579 39.309V0H157.282V17.5048H177.989V0H182.691V39.309H177.989V21.7274H157.282V39.309H152.579Z" fill="#666666"/>
<path d="M203.332 39.9232C200.702 39.9232 198.395 39.2898 196.41 38.023C194.438 36.7562 192.896 34.984 191.784 32.7063C190.684 30.4287 190.134 27.7671 190.134 24.7217C190.134 21.6507 190.684 18.9699 191.784 16.6795C192.896 14.389 194.438 12.6104 196.41 11.3436C198.395 10.0768 200.702 9.44338 203.332 9.44338C205.961 9.44338 208.262 10.0768 210.234 11.3436C212.218 12.6104 213.761 14.389 214.861 16.6795C215.973 18.9699 216.529 21.6507 216.529 24.7217C216.529 27.7671 215.973 30.4287 214.861 32.7063C213.761 34.984 212.218 36.7562 210.234 38.023C208.262 39.2898 205.961 39.9232 203.332 39.9232ZM203.332 35.8541C205.329 35.8541 206.972 35.3359 208.262 34.2994C209.551 33.263 210.506 31.9002 211.125 30.2111C211.744 28.5221 212.054 26.6923 212.054 24.7217C212.054 22.7511 211.744 20.9149 211.125 19.2131C210.506 17.5112 209.551 16.1356 208.262 15.0864C206.972 14.0371 205.329 13.5125 203.332 13.5125C201.334 13.5125 199.691 14.0371 198.401 15.0864C197.112 16.1356 196.158 17.5112 195.538 19.2131C194.919 20.9149 194.609 22.7511 194.609 24.7217C194.609 26.6923 194.919 28.5221 195.538 30.2111C196.158 31.9002 197.112 33.263 198.401 34.2994C199.691 35.3359 201.334 35.8541 203.332 35.8541Z" fill="#666666"/>
<path d="M227.835 0V39.309H223.36V0H227.835Z" fill="#666666"/>
<path d="M247.03 39.9232C244.603 39.9232 242.46 39.3026 240.602 38.0614C238.743 36.8074 237.29 35.0416 236.24 32.7639C235.191 30.4734 234.667 27.7671 234.667 24.6449C234.667 21.5483 235.191 18.8612 236.24 16.5835C237.29 14.3058 238.75 12.5464 240.621 11.3052C242.492 10.064 244.653 9.44338 247.106 9.44338C249.002 9.44338 250.5 9.76328 251.6 10.4031C252.712 11.0301 253.559 11.7466 254.141 12.5528C254.735 13.3461 255.196 13.9987 255.525 14.5106H255.904V0H260.379V39.309H256.056V34.7793H255.525C255.196 35.3167 254.729 35.9949 254.122 36.8138C253.515 37.62 252.649 38.3429 251.524 38.9827C250.399 39.6097 248.901 39.9232 247.03 39.9232ZM247.637 35.8541C249.432 35.8541 250.949 35.3807 252.188 34.4338C253.426 33.4741 254.368 32.1497 255.013 30.4607C255.658 28.7588 255.98 26.7946 255.98 24.5681C255.98 22.3672 255.664 20.4415 255.032 18.7908C254.4 17.1273 253.464 15.8349 252.226 14.9136C250.987 13.9795 249.457 13.5125 247.637 13.5125C245.74 13.5125 244.16 14.0051 242.896 14.9904C241.645 15.9629 240.703 17.2873 240.071 18.9635C239.451 20.627 239.142 22.4952 239.142 24.5681C239.142 26.6667 239.458 28.5733 240.09 30.2879C240.734 31.9898 241.683 33.3461 242.934 34.357C244.198 35.3551 245.766 35.8541 247.637 35.8541Z" fill="#666666"/>
<path d="M281.408 39.9232C278.602 39.9232 276.181 39.2962 274.146 38.0422C272.123 36.7754 270.562 35.0096 269.462 32.7447C268.375 30.4671 267.831 27.8183 267.831 24.7985C267.831 21.7786 268.375 19.1171 269.462 16.8138C270.562 14.4978 272.092 12.6935 274.051 11.4012C276.023 10.096 278.324 9.44338 280.953 9.44338C282.47 9.44338 283.968 9.6993 285.447 10.2111C286.926 10.723 288.273 11.5547 289.486 12.7063C290.7 13.8452 291.667 15.3551 292.387 17.2361C293.108 19.1171 293.468 21.4331 293.468 24.1843V26.1036H271.017V22.1881H288.917C288.917 20.5246 288.589 19.0403 287.931 17.7351C287.287 16.4299 286.364 15.3999 285.163 14.6449C283.975 13.89 282.571 13.5125 280.953 13.5125C279.171 13.5125 277.629 13.9603 276.326 14.856C275.037 15.739 274.045 16.8906 273.349 18.3109C272.654 19.7313 272.306 21.254 272.306 22.8791V25.4894C272.306 27.7159 272.686 29.6033 273.444 31.1516C274.215 32.6871 275.284 33.858 276.649 34.6641C278.014 35.4575 279.601 35.8541 281.408 35.8541C282.584 35.8541 283.646 35.6878 284.594 35.3551C285.555 35.0096 286.383 34.4978 287.078 33.8196C287.773 33.1286 288.311 32.2713 288.69 31.2476L293.013 32.476C292.558 33.9603 291.793 35.2655 290.719 36.3916C289.644 37.5048 288.317 38.3749 286.737 39.0019C285.157 39.6161 283.38 39.9232 281.408 39.9232Z" fill="#666666"/>
<path d="M300.276 39.309V9.82726H304.599V14.2802H304.902C305.433 12.8215 306.394 11.6379 307.785 10.7294C309.175 9.82086 310.743 9.3666 312.487 9.3666C312.816 9.3666 313.227 9.373 313.72 9.3858C314.213 9.39859 314.586 9.41779 314.839 9.44338V14.0499C314.687 14.0115 314.339 13.9539 313.796 13.8772C313.265 13.7876 312.702 13.7428 312.108 13.7428C310.692 13.7428 309.428 14.0435 308.316 14.6449C307.216 15.2335 306.344 16.0525 305.699 17.1017C305.067 18.1382 304.751 19.3218 304.751 20.6526V39.309H300.276Z" fill="#666666"/>
</g>
</svg>
