<svg width="15" height="14" viewBox="0 0 15 14" fill="none" xmlns="http://www.w3.org/2000/svg">
<mask id="mask0_1_4330" style="mask-type:alpha" maskUnits="userSpaceOnUse" x="-3" y="-3" width="20" height="20">
<rect x="-2.00521" y="-2.04838" width="18.695" height="18.695" fill="white"/>
</mask>
<g mask="url(#mask0_1_4330)">
<path d="M6.7835 0.64161C6.96304 0.277884 7.05281 0.0960212 7.17467 0.0379159C7.2807 -0.0126386 7.40389 -0.0126386 7.50992 0.0379159C7.63179 0.0960212 7.72156 0.277884 7.90109 0.64161L9.60442 4.09237C9.65743 4.19975 9.68393 4.25344 9.72266 4.29512C9.75695 4.33203 9.79808 4.36194 9.84376 4.38318C9.89536 4.40717 9.9546 4.41583 10.0731 4.43315L13.8832 4.99005C14.2844 5.0487 14.485 5.07802 14.5779 5.17602C14.6586 5.26128 14.6966 5.37844 14.6812 5.49487C14.6636 5.6287 14.5183 5.77016 14.2279 6.05308L11.4719 8.73739C11.386 8.82107 11.343 8.86291 11.3153 8.91269C11.2908 8.95677 11.275 9.0052 11.2689 9.05528C11.2621 9.11184 11.2722 9.17094 11.2925 9.28915L11.9428 13.0806C12.0114 13.4805 12.0457 13.6805 11.9812 13.7991C11.9251 13.9024 11.8255 13.9748 11.7099 13.9962C11.5772 14.0208 11.3976 13.9264 11.0385 13.7375L7.63235 11.9462C7.52622 11.8904 7.47316 11.8625 7.41725 11.8516C7.36775 11.8419 7.31684 11.8419 7.26734 11.8516C7.21144 11.8625 7.15837 11.8904 7.05224 11.9462L3.64607 13.7375C3.28696 13.9264 3.10741 14.0208 2.97465 13.9962C2.85913 13.9748 2.75946 13.9024 2.70339 13.7991C2.63894 13.6805 2.67323 13.4805 2.74182 13.0806L3.3921 9.28915C3.41237 9.17094 3.42251 9.11184 3.41565 9.05528C3.40958 9.0052 3.39383 8.95677 3.36929 8.91269C3.34157 8.86291 3.29862 8.82107 3.21271 8.73739L0.456734 6.05308C0.166264 5.77016 0.0210287 5.6287 0.00335539 5.49487C-0.0120214 5.37844 0.0259664 5.26128 0.106742 5.17602C0.199582 5.07802 0.400191 5.0487 0.801411 4.99005L4.6115 4.43315C4.72999 4.41583 4.78923 4.40717 4.84083 4.38318C4.88651 4.36194 4.92764 4.33203 4.96193 4.29512C5.00066 4.25344 5.02717 4.19975 5.08017 4.09237L6.7835 0.64161Z" fill="#F97316"/>
</g>
</svg>
