<svg width="18" height="20" viewBox="0 0 18 20" fill="none" xmlns="http://www.w3.org/2000/svg">
<mask id="mask0_1_1844" style="mask-type:alpha" maskUnits="userSpaceOnUse" x="-3" y="-2" width="24" height="24">
<rect x="-2.99988" y="-1.99998" width="23.9998" height="23.9998" fill="white"/>
</mask>
<g mask="url(#mask0_1_1844)">
<path d="M16.9999 18.9998C16.9999 17.6043 16.9999 16.9065 16.8277 16.3387C16.4399 15.0603 15.4395 14.0599 14.1611 13.6721C13.5933 13.4999 12.8955 13.4999 11.5 13.4999H6.50003C5.10448 13.4999 4.4067 13.4999 3.83891 13.6721C2.56052 14.0599 1.56012 15.0603 1.17232 16.3387C1.00008 16.9065 1.00008 17.6043 1.00008 18.9998M13.5 5.49994C13.5 7.9852 11.4853 9.9999 9 9.9999C6.51474 9.9999 4.50005 7.9852 4.50005 5.49994C4.50005 3.01469 6.51474 0.99999 9 0.99999C11.4853 0.99999 13.5 3.01469 13.5 5.49994Z" stroke="black" stroke-width="2" stroke-linecap="round" stroke-linejoin="round"/>
</g>
</svg>
