<svg width="22" height="20" viewBox="0 0 22 20" fill="none" xmlns="http://www.w3.org/2000/svg">
<mask id="mask0_6_8322" style="mask-type:alpha" maskUnits="userSpaceOnUse" x="-1" y="-2" width="24" height="24">
<rect x="-1" y="-2" width="24" height="24" fill="white"/>
</mask>
<g mask="url(#mask0_6_8322)">
<path d="M2 1L20 19" stroke="#A0A0A0" stroke-width="2" stroke-linecap="round" stroke-linejoin="round"/>
<path d="M9.58445 8.58704C9.20917 8.96205 8.99823 9.47079 8.99805 10.0013C8.99786 10.5319 9.20844 11.0408 9.58345 11.416C9.95847 11.7913 10.4672 12.0023 10.9977 12.0024C11.5283 12.0026 12.0372 11.7921 12.4125 11.417" stroke="#A0A0A0" stroke-width="2" stroke-linecap="round" stroke-linejoin="round"/>
<path d="M8.363 3.365C9.22042 3.11972 10.1082 2.99684 11 3C15 3 18.333 5.333 21 10C20.222 11.361 19.388 12.524 18.497 13.488M16.357 15.349C14.726 16.449 12.942 17 11 17C7 17 3.667 14.667 1 10C2.369 7.605 3.913 5.825 5.632 4.659" stroke="#A0A0A0" stroke-width="2" stroke-linecap="round" stroke-linejoin="round"/>
</g>
</svg>
