<svg width="64" height="76" viewBox="0 0 64 76" fill="none" xmlns="http://www.w3.org/2000/svg">
<g filter="url(#filter0_d_6_1313)">
<circle cx="32" cy="28" r="28" fill="#F97316"/>
</g>
<rect x="20" y="68" width="24" height="8" rx="4" fill="#F97316"/>
<mask id="mask0_6_1313" style="mask-type:alpha" maskUnits="userSpaceOnUse" x="20" y="16" width="24" height="24">
<rect x="20" y="16" width="24" height="24" fill="white"/>
</mask>
<g mask="url(#mask0_6_1313)">
<path d="M23 36L24.3 32.1C23.1764 30.4382 22.77 28.4704 23.1562 26.5623C23.5424 24.6541 24.6951 22.9356 26.3998 21.7262C28.1045 20.5168 30.2453 19.8989 32.4241 19.9872C34.6029 20.0755 36.6715 20.8642 38.2453 22.2065C39.819 23.5488 40.7909 25.3535 40.9801 27.2849C41.1693 29.2164 40.563 31.1432 39.2739 32.7071C37.9848 34.271 36.1007 35.3656 33.9718 35.7873C31.8429 36.2091 29.6142 35.9293 27.7 35L23 36" stroke="white" stroke-width="2" stroke-linecap="round" stroke-linejoin="round"/>
<path d="M32 28V28.01" stroke="white" stroke-width="2" stroke-linecap="round" stroke-linejoin="round"/>
<path d="M28 28V28.01" stroke="white" stroke-width="2" stroke-linecap="round" stroke-linejoin="round"/>
<path d="M36 28V28.01" stroke="white" stroke-width="2" stroke-linecap="round" stroke-linejoin="round"/>
</g>
<defs>
<filter id="filter0_d_6_1313" x="0" y="0" width="64" height="64" filterUnits="userSpaceOnUse" color-interpolation-filters="sRGB">
<feFlood flood-opacity="0" result="BackgroundImageFix"/>
<feColorMatrix in="SourceAlpha" type="matrix" values="0 0 0 0 0 0 0 0 0 0 0 0 0 0 0 0 0 0 127 0" result="hardAlpha"/>
<feOffset dy="4"/>
<feGaussianBlur stdDeviation="2"/>
<feComposite in2="hardAlpha" operator="out"/>
<feColorMatrix type="matrix" values="0 0 0 0 0.976471 0 0 0 0 0.450981 0 0 0 0 0.0862745 0 0 0 0.16 0"/>
<feBlend mode="multiply" in2="BackgroundImageFix" result="effect1_dropShadow_6_1313"/>
<feBlend mode="normal" in="SourceGraphic" in2="effect1_dropShadow_6_1313" result="shape"/>
</filter>
</defs>
</svg>
