<svg width="23" height="27" viewBox="0 0 23 27" fill="none" xmlns="http://www.w3.org/2000/svg">
<path fill-rule="evenodd" clip-rule="evenodd" d="M6.34226 26.0848L6.79876 23.1127L5.78183 23.0884H0.925829L4.30058 1.15611C4.3111 1.08969 4.34508 1.02804 4.39472 0.984182C4.4446 0.940324 4.50817 0.916264 4.57468 0.916264H12.7626C15.4811 0.916264 17.357 1.49594 18.3363 2.64026C18.7955 3.17708 19.0879 3.73822 19.2295 4.35549C19.3779 5.00333 19.3804 5.77724 19.2356 6.72131L19.2251 6.78998V7.39497L19.6843 7.66163C20.0709 7.8719 20.3782 8.11249 20.6139 8.38792C21.0066 8.84705 21.2607 9.43049 21.368 10.1219C21.479 10.8332 21.4423 11.6798 21.2607 12.6381C21.0511 13.7404 20.7125 14.7005 20.255 15.4859C19.8344 16.2097 19.2985 16.8102 18.662 17.2753C18.0544 17.7174 17.3326 18.053 16.5164 18.2678C15.7254 18.4788 14.8236 18.5853 13.8346 18.5853H13.1974C12.7419 18.5853 12.2993 18.7535 11.9518 19.0549C11.6034 19.3627 11.3731 19.7832 11.3024 20.2431L11.2543 20.5108L10.4476 25.7494L10.4112 25.9417C10.4014 26.0026 10.3848 26.0329 10.3603 26.0534C10.3386 26.0722 10.3073 26.0848 10.2767 26.0848H6.34226Z" fill="#28356A"/>
<path fill-rule="evenodd" clip-rule="evenodd" d="M20.1193 6.85984C20.0951 7.01999 20.067 7.18364 20.0357 7.3518C18.9559 13.0343 15.2616 14.9974 10.5435 14.9974H8.14118C7.56413 14.9974 7.0778 15.4267 6.98806 16.0101L5.40974 26.2716C5.3513 26.6548 5.63933 26.9999 6.01637 26.9999H10.2772C10.7817 26.9999 11.2103 26.6243 11.2898 26.1143L11.3316 25.8925L12.1338 20.6744L12.1854 20.3882C12.2639 19.8764 12.6935 19.5005 13.1979 19.5005H13.8351C17.9632 19.5005 21.1949 17.7827 22.1395 12.8115C22.5339 10.7349 22.3297 9.00087 21.2857 7.78136C20.9697 7.41371 20.5778 7.10845 20.1193 6.85984Z" fill="#298FC2"/>
<path fill-rule="evenodd" clip-rule="evenodd" d="M18.9894 6.3982C18.8243 6.34882 18.6541 6.30421 18.4796 6.26386C18.304 6.22452 18.1243 6.18968 17.9392 6.15911C17.2915 6.05184 16.5817 6.00097 15.8215 6.00097H9.40376C9.24557 6.00097 9.09543 6.03756 8.9612 6.10372C8.66509 6.24958 8.44528 6.53679 8.39197 6.8884L7.02662 15.7517L6.9875 16.0101C7.07723 15.4267 7.56357 14.9974 8.14062 14.9974H10.5429C15.261 14.9974 18.9554 13.0333 20.0351 7.35179C20.0674 7.18363 20.0946 7.01998 20.1188 6.85983C19.8457 6.71122 19.5498 6.58415 19.2312 6.47589C19.1525 6.44907 19.0713 6.42326 18.9894 6.3982Z" fill="#22284F"/>
<path fill-rule="evenodd" clip-rule="evenodd" d="M8.39231 6.88847C8.44561 6.53685 8.66543 6.24964 8.96153 6.10478C9.09675 6.03837 9.2459 6.00178 9.4041 6.00178H15.8218C16.582 6.00178 17.2918 6.05291 17.9395 6.16017C18.1246 6.1905 18.3043 6.22558 18.4799 6.26493C18.6545 6.30503 18.8247 6.34989 18.9897 6.39901C19.0716 6.42407 19.1528 6.45014 19.2323 6.47595C19.5509 6.58422 19.847 6.71228 20.1201 6.85989C20.4414 4.75997 20.1174 3.3302 19.0098 2.03551C17.7884 0.610002 15.5844 0 12.7639 0H4.57572C3.99965 0 3.50818 0.429307 3.41918 1.01375L0.00872814 23.1716C-0.0585126 23.6099 0.271334 24.0054 0.702653 24.0054H5.75769L8.39231 6.88847Z" fill="#28356A"/>
</svg>
