<svg width="36" height="29" viewBox="0 0 36 29" fill="none" xmlns="http://www.w3.org/2000/svg">
<mask id="mask0_1_219" style="mask-type:alpha" maskUnits="userSpaceOnUse" x="-3" y="-6" width="42" height="41">
<rect x="-2.35706" y="-5.55505" width="40.3954" height="40.3954" fill="white"/>
</mask>
<g mask="url(#mask0_1_219)">
<path d="M34.6727 1.19438C32.9896 2.01912 31.3401 2.35406 29.6233 2.86069C27.7365 0.731511 24.9391 0.613691 22.2511 1.62021C19.5632 2.62673 17.8026 5.08748 17.8413 7.91011V9.59326C12.3795 9.73296 7.51523 7.24527 4.37617 2.86069C4.37617 2.86069 -2.66273 15.3715 11.1087 21.3753C7.9579 23.4741 4.81547 24.8897 1.00989 24.7415C6.57772 27.7762 12.6455 28.8198 17.8985 27.2949C23.9242 25.5444 28.876 21.0285 30.7763 14.264C31.3431 12.2066 31.6246 10.0811 31.6128 7.94714C31.6094 7.52804 34.1543 3.28147 34.6727 1.19269V1.19438Z" stroke="#1DA1F2" stroke-width="2" stroke-linecap="round" stroke-linejoin="round"/>
</g>
</svg>
