<svg width="64" height="76" viewBox="0 0 64 76" fill="none" xmlns="http://www.w3.org/2000/svg">
<g filter="url(#filter0_d_6_7372)">
<circle cx="32" cy="28" r="28" fill="#F97316"/>
</g>
<rect x="20" y="68" width="24" height="8" rx="4" fill="#F97316"/>
<mask id="mask0_6_7372" style="mask-type:alpha" maskUnits="userSpaceOnUse" x="20" y="16" width="24" height="24">
<rect x="20" y="16" width="24" height="24" fill="white"/>
</mask>
<g mask="url(#mask0_6_7372)">
<path d="M28.126 30C28.5701 31.7252 30.1362 33 32 33C33.8638 33 35.4299 31.7252 35.874 30M31.0177 18.764L24.2354 24.0391C23.782 24.3917 23.5553 24.5681 23.392 24.7889C23.2474 24.9844 23.1396 25.2048 23.074 25.4391C23 25.7035 23 25.9907 23 26.5651V33.8C23 34.9201 23 35.4801 23.218 35.908C23.4097 36.2843 23.7157 36.5903 24.092 36.782C24.5198 37 25.0799 37 26.2 37H37.8C38.9201 37 39.4802 37 39.908 36.782C40.2843 36.5903 40.5903 36.2843 40.782 35.908C41 35.4801 41 34.9201 41 33.8V26.5651C41 25.9907 41 25.7035 40.926 25.4391C40.8604 25.2048 40.7526 24.9844 40.608 24.7889C40.4447 24.5681 40.218 24.3917 39.7646 24.0391L32.9823 18.764C32.631 18.4907 32.4553 18.3541 32.2613 18.3016C32.0902 18.2553 31.9098 18.2553 31.7387 18.3016C31.5447 18.3541 31.369 18.4907 31.0177 18.764Z" stroke="white" stroke-width="2" stroke-linecap="round" stroke-linejoin="round"/>
</g>
<defs>
<filter id="filter0_d_6_7372" x="0" y="0" width="64" height="64" filterUnits="userSpaceOnUse" color-interpolation-filters="sRGB">
<feFlood flood-opacity="0" result="BackgroundImageFix"/>
<feColorMatrix in="SourceAlpha" type="matrix" values="0 0 0 0 0 0 0 0 0 0 0 0 0 0 0 0 0 0 127 0" result="hardAlpha"/>
<feOffset dy="4"/>
<feGaussianBlur stdDeviation="2"/>
<feComposite in2="hardAlpha" operator="out"/>
<feColorMatrix type="matrix" values="0 0 0 0 0.976471 0 0 0 0 0.450981 0 0 0 0 0.0862745 0 0 0 0.16 0"/>
<feBlend mode="multiply" in2="BackgroundImageFix" result="effect1_dropShadow_6_7372"/>
<feBlend mode="normal" in="SourceGraphic" in2="effect1_dropShadow_6_7372" result="shape"/>
</filter>
</defs>
</svg>
