<svg width="109" height="80" viewBox="0 0 109 80" fill="none" xmlns="http://www.w3.org/2000/svg">
<g opacity="0.3">
<path d="M0 79.5897V53.3333H3.14111V65.0256H16.9721V53.3333H20.1132V79.5897H16.9721V67.8462H3.14111V79.5897H0Z" fill="#A0A0A0"/>
<path d="M33.8999 80C32.1436 80 30.6026 79.5769 29.2769 78.7308C27.9597 77.8846 26.9295 76.7009 26.1865 75.1795C25.4519 73.6581 25.0846 71.8803 25.0846 69.8462C25.0846 67.7949 25.4519 66.0043 26.1865 64.4744C26.9295 62.9444 27.9597 61.7564 29.2769 60.9103C30.6026 60.0641 32.1436 59.641 33.8999 59.641C35.6562 59.641 37.193 60.0641 38.5103 60.9103C39.8359 61.7564 40.8661 62.9444 41.6007 64.4744C42.3438 66.0043 42.7153 67.7949 42.7153 69.8462C42.7153 71.8803 42.3438 73.6581 41.6007 75.1795C40.8661 76.7009 39.8359 77.8846 38.5103 78.7308C37.193 79.5769 35.6562 80 33.8999 80ZM33.8999 77.2821C35.2341 77.2821 36.3318 76.9359 37.193 76.2436C38.0543 75.5513 38.6918 74.641 39.1056 73.5128C39.5193 72.3846 39.7262 71.1624 39.7262 69.8462C39.7262 68.5299 39.5193 67.3034 39.1056 66.1667C38.6918 65.0299 38.0543 64.1111 37.193 63.4103C36.3318 62.7094 35.2341 62.359 33.8999 62.359C32.5658 62.359 31.4681 62.7094 30.6068 63.4103C29.7456 64.1111 29.108 65.0299 28.6943 66.1667C28.2805 67.3034 28.0737 68.5299 28.0737 69.8462C28.0737 71.1624 28.2805 72.3846 28.6943 73.5128C29.108 74.641 29.7456 75.5513 30.6068 76.2436C31.4681 76.9359 32.5658 77.2821 33.8999 77.2821Z" fill="#A0A0A0"/>
<path d="M50.2673 53.3333V79.5897H47.2781V53.3333H50.2673Z" fill="#A0A0A0"/>
<path d="M63.0882 80C61.467 80 60.0358 79.5855 58.7945 78.7564C57.5533 77.9188 56.5822 76.7393 55.8814 75.218C55.1805 73.688 54.8301 71.8803 54.8301 69.7949C54.8301 67.7265 55.1805 65.9316 55.8814 64.4103C56.5822 62.8889 57.5575 61.7137 58.8072 60.8846C60.0569 60.0556 61.5008 59.641 63.1389 59.641C64.4054 59.641 65.406 59.8547 66.1407 60.2821C66.8837 60.7009 67.4494 61.1795 67.8379 61.7179C68.2347 62.2479 68.5429 62.6838 68.7625 63.0256H69.0158V53.3333H72.0049V79.5897H69.1171V76.5641H68.7625C68.5429 76.9231 68.2305 77.3761 67.8252 77.9231C67.4199 78.4615 66.8415 78.9445 66.09 79.3718C65.3385 79.7906 64.3379 80 63.0882 80ZM63.4935 77.2821C64.6925 77.2821 65.7058 76.9658 66.5333 76.3333C67.3608 75.6923 67.9899 74.8077 68.4205 73.6795C68.8511 72.5427 69.0664 71.2308 69.0664 69.7436C69.0664 68.2735 68.8554 66.9872 68.4332 65.8846C68.011 64.7735 67.3861 63.9103 66.5586 63.2949C65.7311 62.6709 64.7094 62.359 63.4935 62.359C62.2269 62.359 61.1714 62.688 60.3271 63.3462C59.4911 63.9957 58.8621 64.8803 58.4399 66C58.0261 67.1111 57.8192 68.359 57.8192 69.7436C57.8192 71.1453 58.0303 72.4188 58.4525 73.5641C58.8832 74.7009 59.5165 75.6068 60.3524 76.2821C61.1968 76.9487 62.2438 77.2821 63.4935 77.2821Z" fill="#A0A0A0"/>
<path d="M86.0512 80C84.1767 80 82.5597 79.5812 81.2002 78.7436C79.8492 77.8974 78.8064 76.7179 78.0718 75.2051C77.3456 73.6838 76.9825 71.9145 76.9825 69.8974C76.9825 67.8803 77.3456 66.1026 78.0718 64.5641C78.8064 63.0171 79.8281 61.812 81.1369 60.9487C82.4542 60.0769 83.991 59.641 85.7473 59.641C86.7605 59.641 87.7611 59.812 88.749 60.1538C89.737 60.4957 90.6362 61.0513 91.4469 61.8205C92.2575 62.5812 92.9034 63.5897 93.3847 64.8462C93.866 66.1026 94.1067 67.6496 94.1067 69.4872V70.7692H79.1104V68.1539H91.0669C91.0669 67.0427 90.8473 66.0513 90.4083 65.1795C89.9776 64.3077 89.3612 63.6197 88.5591 63.1154C87.7653 62.6111 86.8281 62.359 85.7473 62.359C84.5567 62.359 83.5265 62.6581 82.6568 63.2564C81.7955 63.8462 81.1327 64.6154 80.6683 65.5641C80.2039 66.5128 79.9717 67.5299 79.9717 68.6154V70.359C79.9717 71.8462 80.225 73.1068 80.7316 74.141C81.2467 75.1667 81.9602 75.9487 82.8721 76.4872C83.7841 77.0171 84.8438 77.2821 86.0512 77.2821C86.8365 77.2821 87.5458 77.1709 88.1791 76.9487C88.8208 76.718 89.3739 76.3761 89.8383 75.9231C90.3027 75.4615 90.6616 74.8889 90.9149 74.2051L93.8027 75.0256C93.4987 76.0171 92.9879 76.8889 92.2701 77.641C91.5524 78.3846 90.6658 78.9658 89.6103 79.3846C88.5549 79.7949 87.3685 80 86.0512 80Z" fill="#A0A0A0"/>
<path d="M98.6537 79.5897V59.8974H101.541V62.8718H101.744C102.099 61.8974 102.741 61.1068 103.669 60.5C104.598 59.8932 105.645 59.5897 106.81 59.5897C107.03 59.5897 107.304 59.594 107.634 59.6026C107.963 59.6111 108.212 59.6239 108.381 59.641V62.7179C108.28 62.6923 108.047 62.6538 107.684 62.6026C107.33 62.5427 106.954 62.5128 106.557 62.5128C105.611 62.5128 104.767 62.7137 104.024 63.1154C103.289 63.5086 102.707 64.0556 102.276 64.7564C101.854 65.4487 101.643 66.2393 101.643 67.1282V79.5897H98.6537Z" fill="#A0A0A0"/>
<path d="M10.6667 26.206V0H19.4146C21.4456 0 23.1059 0.371081 24.3953 1.11324C25.6931 1.84688 26.6539 2.84069 27.2775 4.09469C27.9012 5.34869 28.213 6.74771 28.213 8.29175C28.213 9.83579 27.9012 11.2391 27.2775 12.5016C26.6623 13.7641 25.71 14.7707 24.4206 15.5214C23.1311 16.2636 21.4793 16.6347 19.4651 16.6347H13.195V13.8196H19.364C20.7546 13.8196 21.8712 13.5765 22.714 13.0902C23.5567 12.604 24.1677 11.9471 24.547 11.1196C24.9347 10.2836 25.1285 9.34101 25.1285 8.29175C25.1285 7.24248 24.9347 6.30412 24.547 5.47665C24.1677 4.64918 23.5525 4.00085 22.7013 3.53167C21.8501 3.05396 20.7208 2.8151 19.3134 2.8151H13.8017V26.206H10.6667Z" fill="#A0A0A0"/>
<path d="M35.8421 0V26.206H32.8587V0H35.8421Z" fill="#A0A0A0"/>
<path d="M47.0203 26.6667C45.7899 26.6667 44.6732 26.4321 43.6704 25.9629C42.6675 25.4852 41.8711 24.7985 41.2811 23.9028C40.6912 22.9985 40.3962 21.9066 40.3962 20.627C40.3962 19.501 40.6153 18.5882 41.0536 17.8887C41.4918 17.1806 42.0775 16.6261 42.8107 16.2252C43.5439 15.8243 44.353 15.5257 45.2379 15.3295C46.1312 15.1248 47.0288 14.9627 47.9305 14.8433C49.1104 14.6897 50.0669 14.5745 50.8001 14.4978C51.5418 14.4125 52.0811 14.2717 52.4183 14.0755C52.7638 13.8793 52.9365 13.5381 52.9365 13.0518V12.9495C52.9365 11.6869 52.5952 10.7059 51.9126 10.0064C51.2384 9.30689 50.2144 8.95713 48.8407 8.95713C47.4164 8.95713 46.2998 9.27277 45.4907 9.90403C44.6817 10.5353 44.1128 11.2092 43.7841 11.9258L40.9524 10.9021C41.4581 9.70783 42.1323 8.77799 42.9751 8.1126C43.8263 7.43869 44.7533 6.9695 45.7562 6.70505C46.7675 6.43208 47.762 6.29559 48.7396 6.29559C49.3632 6.29559 50.0796 6.37236 50.8886 6.52591C51.7061 6.67093 52.4941 6.97377 53.2526 7.43442C54.0195 7.89507 54.6558 8.59032 55.1614 9.52015C55.6671 10.45 55.9199 11.6955 55.9199 13.2566V26.206H52.9365V23.5445H52.7848C52.5826 23.971 52.2455 24.4274 51.7735 24.9136C51.3016 25.3999 50.6737 25.8136 49.89 26.1548C49.1062 26.4961 48.1496 26.6667 47.0203 26.6667ZM47.4754 23.9539C48.6553 23.9539 49.6498 23.7193 50.4588 23.2502C51.2763 22.781 51.8915 22.1753 52.3045 21.4331C52.7259 20.691 52.9365 19.9104 52.9365 19.0915V16.3276C52.8101 16.4811 52.532 16.6219 52.1022 16.7498C51.6808 16.8693 51.192 16.9759 50.6358 17.0697C50.088 17.155 49.5528 17.2318 49.0303 17.3001C48.5163 17.3598 48.0991 17.411 47.7788 17.4536C47.0035 17.556 46.2787 17.7223 45.6045 17.9527C44.9387 18.1745 44.3993 18.5114 43.9864 18.9635C43.5819 19.4071 43.3796 20.0128 43.3796 20.7806C43.3796 21.8298 43.7631 22.6232 44.53 23.1606C45.3053 23.6895 46.2871 23.9539 47.4754 23.9539Z" fill="#A0A0A0"/>
<path d="M69.2535 26.6155C67.4331 26.6155 65.8656 26.1804 64.5509 25.3103C63.2362 24.4402 62.2249 23.2416 61.5169 21.7147C60.809 20.1877 60.4551 18.4432 60.4551 16.4811C60.4551 14.485 60.8174 12.7234 61.5422 11.1964C62.2754 9.66091 63.2952 8.46236 64.6014 7.60077C65.9162 6.73065 67.45 6.29559 69.2029 6.29559C70.5682 6.29559 71.7987 6.5515 72.8942 7.06334C73.9898 7.57518 74.8874 8.29175 75.5869 9.21305C76.2864 10.1344 76.7204 11.2092 76.889 12.4376H73.9056C73.678 11.5419 73.1724 10.7486 72.3886 10.0576C71.6133 9.35807 70.5682 9.00832 69.2535 9.00832C68.0905 9.00832 67.0708 9.31542 66.1943 9.92962C65.3262 10.5353 64.6478 11.3926 64.159 12.5016C63.6786 13.602 63.4384 14.8944 63.4384 16.3788C63.4384 17.8972 63.6744 19.2194 64.1464 20.3455C64.6267 21.4715 65.3009 22.3459 66.169 22.9687C67.0455 23.5914 68.0736 23.9028 69.2535 23.9028C70.0289 23.9028 70.7326 23.7663 71.3646 23.4933C71.9967 23.2203 72.5319 22.8279 72.9701 22.3161C73.4083 21.8042 73.7202 21.19 73.9056 20.4734H76.889C76.7204 21.6336 76.3032 22.6786 75.6374 23.6084C74.9801 24.5298 74.1078 25.2634 73.0207 25.8093C71.9419 26.3468 70.6862 26.6155 69.2535 26.6155Z" fill="#A0A0A0"/>
<path d="M89.3914 26.6155C87.5204 26.6155 85.9065 26.1975 84.5497 25.3615C83.2013 24.517 82.1604 23.3397 81.4272 21.8298C80.7025 20.3114 80.3401 18.5455 80.3401 16.5323C80.3401 14.5191 80.7025 12.7447 81.4272 11.2092C82.1604 9.66517 83.1802 8.46236 84.4865 7.60077C85.8012 6.73065 87.335 6.29559 89.088 6.29559C90.0993 6.29559 91.098 6.4662 92.084 6.80742C93.07 7.14865 93.9676 7.70314 94.7766 8.47089C95.5857 9.23011 96.2304 10.2367 96.7108 11.4907C97.1911 12.7447 97.4313 14.2888 97.4313 16.1228V17.4024H82.4638V14.7921H94.3974C94.3974 13.6831 94.1783 12.6935 93.74 11.8234C93.3102 10.9533 92.695 10.2666 91.8944 9.76328C91.1022 9.25997 90.1667 9.00832 89.088 9.00832C87.8997 9.00832 86.8715 9.30689 86.0034 9.90403C85.1438 10.4926 84.4823 11.2604 84.0187 12.2073C83.5552 13.1542 83.3235 14.1693 83.3235 15.2527V16.993C83.3235 18.4773 83.5763 19.7356 84.0819 20.7678C84.596 21.7914 85.3082 22.572 86.2184 23.1094C87.1285 23.6383 88.1862 23.9028 89.3914 23.9028C90.1751 23.9028 90.883 23.7919 91.5151 23.5701C92.1556 23.3397 92.7076 22.9985 93.1712 22.5464C93.6347 22.0857 93.9929 21.5142 94.2457 20.8317L97.1279 21.6507C96.8245 22.6402 96.3147 23.5103 95.5983 24.261C94.882 25.0032 93.9971 25.5833 92.9436 26.0013C91.8901 26.4107 90.7061 26.6155 89.3914 26.6155Z" fill="#A0A0A0"/>
</g>
</svg>
