<svg width="38" height="8" viewBox="0 0 38 8" fill="none" xmlns="http://www.w3.org/2000/svg">
<mask id="mask0_1_4082" style="mask-type:alpha" maskUnits="userSpaceOnUse" x="29" y="-2" width="11" height="11">
<rect x="29.0386" y="-1.09984" width="10.0383" height="10.0383" fill="white"/>
</mask>
<g mask="url(#mask0_1_4082)">
<path d="M33.7573 0.344514C33.8537 0.14921 33.9019 0.0515588 33.9674 0.020359C34.0243 -0.00678634 34.0905 -0.00678634 34.1474 0.020359C34.2128 0.0515588 34.261 0.14921 34.3574 0.344514L35.272 2.1974C35.3005 2.25506 35.3147 2.28389 35.3355 2.30627C35.3539 2.32609 35.376 2.34215 35.4006 2.35356C35.4283 2.36644 35.4601 2.37109 35.5237 2.38039L37.5695 2.67942C37.785 2.71091 37.8927 2.72665 37.9425 2.77927C37.9859 2.82505 38.0063 2.88796 37.998 2.95048C37.9886 3.02234 37.9106 3.0983 37.7546 3.25021L36.2748 4.69156C36.2287 4.73649 36.2056 4.75896 36.1907 4.78569C36.1775 4.80936 36.1691 4.83536 36.1658 4.86225C36.1621 4.89262 36.1676 4.92436 36.1785 4.98783L36.5276 7.02367C36.5645 7.23839 36.5829 7.34576 36.5483 7.40947C36.5182 7.4649 36.4646 7.50378 36.4026 7.51528C36.3313 7.52849 36.2349 7.47779 36.0421 7.37639L34.2131 6.41456C34.1561 6.38459 34.1277 6.36961 34.0976 6.36372C34.0711 6.35851 34.0437 6.35851 34.0171 6.36372C33.9871 6.36961 33.9586 6.38459 33.9016 6.41456L32.0727 7.37639C31.8799 7.47779 31.7835 7.52849 31.7122 7.51528C31.6501 7.50378 31.5966 7.4649 31.5665 7.40947C31.5319 7.34576 31.5503 7.23839 31.5872 7.02367L31.9363 4.98783C31.9472 4.92436 31.9527 4.89262 31.949 4.86225C31.9457 4.83536 31.9373 4.80936 31.9241 4.78569C31.9092 4.75896 31.8861 4.73649 31.84 4.69156L30.3602 3.25021C30.2042 3.0983 30.1262 3.02234 30.1167 2.95048C30.1085 2.88796 30.1289 2.82505 30.1722 2.77927C30.2221 2.72665 30.3298 2.71091 30.5452 2.67942L32.5911 2.38039C32.6547 2.37109 32.6865 2.36644 32.7142 2.35356C32.7388 2.34215 32.7608 2.32609 32.7792 2.30627C32.8 2.28389 32.8143 2.25506 32.8427 2.1974L33.7573 0.344514Z" fill="#FF5757"/>
</g>
<mask id="mask1_1_4082" style="mask-type:alpha" maskUnits="userSpaceOnUse" x="19" y="-2" width="11" height="11">
<rect x="19.0002" y="-1.09984" width="10.0383" height="10.0383" fill="white"/>
</mask>
<g mask="url(#mask1_1_4082)">
<path d="M23.719 0.344514C23.8154 0.14921 23.8636 0.0515588 23.9291 0.020359C23.986 -0.00678634 24.0522 -0.00678634 24.1091 0.020359C24.1745 0.0515588 24.2227 0.14921 24.3191 0.344514L25.2337 2.1974C25.2622 2.25506 25.2764 2.28389 25.2972 2.30627C25.3156 2.32609 25.3377 2.34215 25.3622 2.35356C25.39 2.36644 25.4218 2.37109 25.4854 2.38039L27.5312 2.67942C27.7467 2.71091 27.8544 2.72665 27.9042 2.77927C27.9476 2.82505 27.968 2.88796 27.9597 2.95048C27.9503 3.02234 27.8723 3.0983 27.7163 3.25021L26.2365 4.69156C26.1903 4.73649 26.1673 4.75896 26.1524 4.78569C26.1392 4.80936 26.1308 4.83536 26.1275 4.86225C26.1238 4.89262 26.1293 4.92436 26.1401 4.98783L26.4893 7.02367C26.5261 7.23839 26.5446 7.34576 26.51 7.40947C26.4798 7.4649 26.4263 7.50378 26.3643 7.51528C26.293 7.52849 26.1966 7.47779 26.0038 7.37639L24.1748 6.41456C24.1178 6.38459 24.0893 6.36961 24.0593 6.36372C24.0327 6.35851 24.0054 6.35851 23.9788 6.36372C23.9488 6.36961 23.9203 6.38459 23.8633 6.41456L22.0344 7.37639C21.8416 7.47779 21.7451 7.52849 21.6739 7.51528C21.6118 7.50378 21.5583 7.4649 21.5282 7.40947C21.4936 7.34576 21.512 7.23839 21.5488 7.02367L21.898 4.98783C21.9089 4.92436 21.9143 4.89262 21.9107 4.86225C21.9074 4.83536 21.8989 4.80936 21.8858 4.78569C21.8709 4.75896 21.8478 4.73649 21.8017 4.69156L20.3219 3.25021C20.1659 3.0983 20.0879 3.02234 20.0784 2.95048C20.0702 2.88796 20.0906 2.82505 20.1339 2.77927C20.1838 2.72665 20.2915 2.71091 20.5069 2.67942L22.5528 2.38039C22.6164 2.37109 22.6482 2.36644 22.6759 2.35356C22.7004 2.34215 22.7225 2.32609 22.7409 2.30627C22.7617 2.28389 22.776 2.25506 22.8044 2.1974L23.719 0.344514Z" fill="#FF5757"/>
</g>
<mask id="mask2_1_4082" style="mask-type:alpha" maskUnits="userSpaceOnUse" x="8" y="-2" width="12" height="11">
<rect x="8.96194" y="-1.09984" width="10.0383" height="10.0383" fill="white"/>
</mask>
<g mask="url(#mask2_1_4082)">
<path d="M13.6807 0.344514C13.7771 0.14921 13.8253 0.0515588 13.8908 0.020359C13.9477 -0.00678634 14.0138 -0.00678634 14.0708 0.020359C14.1362 0.0515588 14.1844 0.14921 14.2808 0.344514L15.1954 2.1974C15.2239 2.25506 15.2381 2.28389 15.2589 2.30627C15.2773 2.32609 15.2994 2.34215 15.3239 2.35356C15.3516 2.36644 15.3835 2.37109 15.4471 2.38039L17.4929 2.67942C17.7083 2.71091 17.8161 2.72665 17.8659 2.77927C17.9093 2.82505 17.9297 2.88796 17.9214 2.95048C17.9119 3.02234 17.834 3.0983 17.678 3.25021L16.1982 4.69156C16.152 4.73649 16.129 4.75896 16.1141 4.78569C16.1009 4.80936 16.0925 4.83536 16.0892 4.86225C16.0855 4.89262 16.091 4.92436 16.1018 4.98783L16.451 7.02367C16.4878 7.23839 16.5062 7.34576 16.4716 7.40947C16.4415 7.4649 16.388 7.50378 16.326 7.51528C16.2547 7.52849 16.1583 7.47779 15.9655 7.37639L14.1365 6.41456C14.0795 6.38459 14.051 6.36961 14.021 6.36372C13.9944 6.35851 13.9671 6.35851 13.9405 6.36372C13.9105 6.36961 13.882 6.38459 13.825 6.41456L11.9961 7.37639C11.8033 7.47779 11.7068 7.52849 11.6356 7.51528C11.5735 7.50378 11.52 7.4649 11.4899 7.40947C11.4553 7.34576 11.4737 7.23839 11.5105 7.02367L11.8597 4.98783C11.8706 4.92436 11.876 4.89262 11.8724 4.86225C11.8691 4.83536 11.8606 4.80936 11.8475 4.78569C11.8326 4.75896 11.8095 4.73649 11.7634 4.69156L10.2836 3.25021C10.1276 3.0983 10.0496 3.02234 10.0401 2.95048C10.0319 2.88796 10.0523 2.82505 10.0956 2.77927C10.1455 2.72665 10.2532 2.71091 10.4686 2.67942L12.5145 2.38039C12.5781 2.37109 12.6099 2.36644 12.6376 2.35356C12.6621 2.34215 12.6842 2.32609 12.7026 2.30627C12.7234 2.28389 12.7377 2.25506 12.7661 2.1974L13.6807 0.344514Z" fill="#FF5757"/>
</g>
<mask id="mask3_1_4082" style="mask-type:alpha" maskUnits="userSpaceOnUse" x="-2" y="-2" width="11" height="11">
<rect x="-1.07637" y="-1.09984" width="10.0383" height="10.0383" fill="white"/>
</mask>
<g mask="url(#mask3_1_4082)">
<path d="M3.64241 0.344514C3.73882 0.14921 3.78702 0.0515588 3.85246 0.020359C3.90939 -0.00678634 3.97553 -0.00678634 4.03247 0.020359C4.0979 0.0515588 4.14611 0.14921 4.24251 0.344514L5.15712 2.1974C5.18558 2.25506 5.19981 2.28389 5.2206 2.30627C5.23902 2.32609 5.2611 2.34215 5.28563 2.35356C5.31333 2.36644 5.34515 2.37109 5.40877 2.38039L7.4546 2.67942C7.67004 2.71091 7.77776 2.72665 7.82761 2.77927C7.87098 2.82505 7.89138 2.88796 7.88312 2.95048C7.87363 3.02234 7.79565 3.0983 7.63968 3.25021L6.15985 4.69156C6.11372 4.73649 6.09066 4.75896 6.07577 4.78569C6.0626 4.80936 6.05414 4.83536 6.05088 4.86225C6.0472 4.89262 6.05264 4.92436 6.06353 4.98783L6.4127 7.02367C6.44953 7.23839 6.46794 7.34576 6.43333 7.40947C6.40323 7.4649 6.34971 7.50378 6.28768 7.51528C6.21639 7.52849 6.11998 7.47779 5.92716 7.37639L4.09821 6.41456C4.04122 6.38459 4.01273 6.36961 3.98271 6.36372C3.95613 6.35851 3.92879 6.35851 3.90221 6.36372C3.8722 6.36961 3.8437 6.38459 3.78672 6.41456L1.95777 7.37639C1.76494 7.47779 1.66853 7.52849 1.59724 7.51528C1.53522 7.50378 1.4817 7.4649 1.45159 7.40947C1.41698 7.34576 1.4354 7.23839 1.47223 7.02367L1.8214 4.98783C1.83228 4.92436 1.83772 4.89262 1.83404 4.86225C1.83078 4.83536 1.82233 4.80936 1.80915 4.78569C1.79427 4.75896 1.7712 4.73649 1.72507 4.69156L0.245245 3.25021C0.0892758 3.0983 0.0112914 3.02234 0.00180168 2.95048C-0.0064549 2.88796 0.0139427 2.82505 0.0573154 2.77927C0.107166 2.72665 0.214884 2.71091 0.430319 2.67942L2.47615 2.38039C2.53978 2.37109 2.57159 2.36644 2.59929 2.35356C2.62382 2.34215 2.64591 2.32609 2.66432 2.30627C2.68512 2.28389 2.69935 2.25506 2.72781 2.1974L3.64241 0.344514Z" fill="#FF5757"/>
</g>
</svg>
